<svg xmlns="http://www.w3.org/2000/svg" xmlns:xlink="http://www.w3.org/1999/xlink" width="5000" zoomAndPan="magnify" viewBox="0 0 3750 2624.999883" height="3500" preserveAspectRatio="xMidYMid meet" version="1.0"><defs><g/><clipPath id="1458cbc952"><path d="M 292 914.109375 L 551 914.109375 L 551 1026 L 292 1026 Z M 292 914.109375 " clip-rule="nonzero"/></clipPath><clipPath id="9bd5289e46"><path d="M 228.3125 1076 L 619.8125 1076 L 619.8125 1463.859375 L 228.3125 1463.859375 Z M 228.3125 1076 " clip-rule="nonzero"/></clipPath></defs><path stroke-linecap="butt" transform="matrix(7.143442, 0, 0, 7.143442, 827.924772, 895.267003)" fill="none" stroke-linejoin="miter" d="M 5.298379 12.222556 L 31.854642 12.222556 C 39.264191 12.222556 45.258544 14.132634 49.83934 17.951696 C 54.433808 21.771305 56.731588 27.328194 56.731588 34.622362 C 56.731588 41.91653 54.405373 47.638561 49.752941 51.788456 C 45.115274 55.937804 39.14881 58.013024 31.854642 58.013024 L 21.882646 58.013024 L 21.882646 85.000189 L 5.298379 85.000189 Z M 21.882646 44.766609 L 26.556404 44.766609 C 30.261178 44.766609 33.304835 44.020186 35.688468 42.526793 C 38.072101 41.019182 39.264191 38.563914 39.264191 35.16099 C 39.264191 31.685884 38.072101 29.202181 35.688468 27.708788 C 33.304835 26.201177 30.261178 25.447098 26.556404 25.447098 L 21.882646 25.447098 Z M 60.023506 79.615552 C 54.998137 75.150136 52.485452 69.420996 52.485452 62.428131 C 52.485452 55.421049 55.098753 49.670583 60.325357 45.176185 C 65.566177 40.66757 72.041741 38.412989 79.752593 38.412989 C 87.333848 38.412989 93.723559 40.681788 98.921727 45.219385 C 104.133565 49.742217 106.739758 55.478466 106.739758 62.428131 C 106.739758 69.363579 104.198638 75.077955 99.115304 79.572352 C 94.032518 84.06675 87.578281 86.313675 79.752593 86.313675 C 71.63982 86.313675 65.06364 84.080967 60.023506 79.615552 Z M 72.106813 54.739152 C 70.081901 56.735082 69.069718 59.298075 69.069718 62.428131 C 69.069718 65.54397 70.038702 68.085637 71.977215 70.052585 C 73.929945 72.019533 76.492939 73.003281 79.666741 73.003281 C 82.725162 73.003281 85.237847 72.005316 87.204796 70.009385 C 89.171744 67.999238 90.155491 65.46468 90.155491 62.406805 C 90.155491 59.290966 89.143309 56.735082 87.118396 54.739152 C 85.094031 52.743222 82.609781 51.745256 79.666741 51.745256 C 76.665737 51.745256 74.145396 52.743222 72.106813 54.739152 Z M 125.442992 38.412989 C 128.027858 38.412989 130.583743 38.70773 133.110645 39.29612 C 135.652312 39.885056 137.540517 40.473445 138.775259 41.062381 L 140.627373 41.945512 L 135.501387 52.176159 C 131.96941 50.295063 128.616794 49.354515 125.442992 49.354515 C 123.677277 49.354515 122.42777 49.548093 121.695564 49.935795 C 120.963359 50.30928 120.596982 51.027268 120.596982 52.089759 C 120.596982 52.333646 120.625964 52.57097 120.683382 52.800639 C 120.740799 53.030307 120.855633 53.252867 121.027885 53.468318 C 121.214354 53.669005 121.379496 53.841803 121.523313 53.985073 C 121.667129 54.128889 121.911015 54.294032 122.255518 54.480501 C 122.614786 54.652753 122.894763 54.781805 123.09545 54.868204 C 123.310901 54.954603 123.648295 55.090764 124.107632 55.277233 C 124.581734 55.449484 124.933346 55.579083 125.163015 55.664935 C 125.407448 55.751335 125.809368 55.887495 126.369322 56.074511 C 126.929276 56.246763 127.360178 56.361597 127.661482 56.419014 C 129.485161 56.949986 131.072062 57.538922 132.421639 58.185276 C 133.771216 58.831082 135.192974 59.714213 136.686368 60.834121 C 138.193979 61.95403 139.357086 63.368679 140.175144 65.077524 C 141.007967 66.771604 141.424652 68.710117 141.424652 70.892516 C 141.424652 81.173471 134.273753 86.313675 119.972502 86.313675 C 116.741829 86.313675 113.66919 85.818247 110.754039 84.827937 C 107.839434 83.822317 105.735778 82.824898 104.443618 81.834042 L 102.505105 80.240032 L 108.858725 69.557157 C 109.332827 69.973841 109.950198 70.461614 110.711386 71.021568 C 111.472027 71.581522 112.850586 72.349819 114.846516 73.326458 C 116.856664 74.288332 118.593943 74.769542 120.058902 74.769542 C 123.303792 74.769542 124.926237 73.678069 124.926237 71.49567 C 124.926237 70.504814 124.510099 69.729408 123.677277 69.169454 C 122.858672 68.6095 121.458787 67.977911 119.477074 67.274141 C 117.510126 66.57037 115.973533 65.924564 114.867842 65.335628 C 112.039636 63.856999 109.799273 62.191354 108.148393 60.338693 C 106.511183 58.486579 105.692578 56.031312 105.692578 52.97289 C 105.692578 48.39264 107.465949 44.824026 111.012689 42.268689 C 114.573648 39.69804 119.384113 38.412989 125.442992 38.412989 Z M 143.538697 39.748348 L 143.538697 22.884105 L 159.153981 22.884105 L 159.153981 39.748348 L 168.673748 39.748348 L 168.673748 51.658857 L 159.153981 51.658857 L 159.153981 66.025181 C 159.153981 70.20351 160.324197 72.292402 162.664631 72.292402 C 163.253567 72.292402 163.870938 72.177567 164.517291 71.947899 C 165.177315 71.704012 165.679852 71.466688 166.024902 71.237019 L 166.562983 70.892516 L 170.440009 83.492578 C 167.080285 85.373127 163.253567 86.313675 158.960403 86.313675 C 156.031033 86.313675 153.504131 85.804029 151.378602 84.784738 C 149.267837 83.750682 147.667265 82.365014 146.575792 80.627734 C 145.484319 78.890455 144.701805 77.066776 144.22825 75.157245 C 143.768913 73.247167 143.538697 71.208584 143.538697 69.040402 L 143.538697 51.658857 L 137.012825 51.658857 L 137.012825 39.748348 Z M 213.233301 64.538896 L 180.409271 64.538896 C 180.409271 67.712152 181.435671 70.066803 183.489019 71.603396 C 185.557131 73.125224 187.796947 73.886412 190.209015 73.886412 C 192.736464 73.886412 194.731848 73.549017 196.196806 72.874229 C 197.661217 72.19944 199.34108 70.856425 201.236393 68.846278 L 212.522422 74.510892 C 207.81312 82.379778 199.987433 86.313675 189.045907 86.313675 C 182.225841 86.313675 176.374211 83.980351 171.492658 79.313701 C 166.610557 74.632835 164.169507 69.004312 164.169507 62.428131 C 164.169507 55.837187 166.610557 50.187337 171.492658 45.477488 C 176.374211 40.768187 182.225841 38.412989 189.045907 38.412989 C 196.225241 38.412989 202.062107 40.48821 206.556504 44.637557 C 211.065119 48.787452 213.3197 54.71017 213.3197 62.406805 C 213.3197 63.469296 213.290718 64.179629 213.233301 64.538896 Z M 180.840173 55.880386 L 198.04892 55.880386 C 197.690199 53.525736 196.763869 51.716274 195.270476 50.453097 C 193.777082 49.189372 191.853334 48.557783 189.498136 48.557783 C 186.913816 48.557783 184.85336 49.23968 183.316767 50.603475 C 181.794939 51.953599 180.969225 53.712205 180.840173 55.880386 Z M 212.346343 85.000189 L 212.346343 39.748348 L 227.961626 39.748348 L 227.961626 46.274767 L 228.133878 46.274767 C 228.248712 46.030334 228.435181 45.736139 228.693832 45.391636 C 228.9667 45.032369 229.540872 44.414997 230.416894 43.538975 C 231.307133 42.648736 232.247681 41.852004 233.238538 41.148234 C 234.243612 40.44501 235.535771 39.812874 237.115017 39.25292 C 238.709027 38.692966 240.331472 38.412989 241.9829 38.412989 C 243.691744 38.412989 245.364498 38.650313 247.00116 39.123868 C 248.652588 39.59797 249.858348 40.071525 250.619536 40.545627 L 251.869043 41.234633 L 245.342624 54.480501 C 243.389894 52.829074 240.683631 52.003907 237.222743 52.003907 C 235.342194 52.003907 233.719201 52.420045 232.355407 53.252867 C 231.00583 54.071472 230.050518 55.069437 229.490563 56.246763 C 228.945374 57.424088 228.550015 58.422053 228.306129 59.240658 C 228.07646 60.058716 227.961626 60.705069 227.961626 61.178624 L 227.961626 85.000189 Z M 247.986548 12.222556 L 270.558606 12.222556 C 277.378672 12.222556 282.820727 13.680405 286.884222 16.59501 C 290.947717 19.495398 292.979738 24.212355 292.979738 30.745336 C 292.979738 38.040051 289.949752 43.244781 283.890327 46.360619 C 294.242916 48.184298 299.419758 54.301141 299.419758 64.711148 C 299.419758 70.82799 297.301337 75.738526 293.065591 79.4433 C 288.829844 83.147528 283.007743 85.000189 275.598193 85.000189 L 247.986548 85.000189 Z M 264.570815 40.717878 L 265.884848 40.717878 C 269.589076 40.717878 272.353303 40.071525 274.176981 38.779365 C 276.00066 37.487205 276.912226 35.369332 276.912226 32.425745 C 276.912226 27.486228 273.236434 25.016196 265.884848 25.016196 L 264.570815 25.016196 Z M 264.570815 72.206549 L 269.761328 72.206549 C 277.888318 72.206549 281.95236 69.49974 281.95236 64.086667 C 281.95236 60.855995 280.932522 58.536888 278.893939 57.129893 C 276.869027 55.708135 273.824823 54.997256 269.761328 54.997256 L 264.570815 54.997256 Z M 302.711676 79.615552 C 297.686306 75.150136 295.173621 69.420996 295.173621 62.428131 C 295.173621 55.421049 297.786923 49.670583 303.013526 45.176185 C 308.254347 40.66757 314.730457 38.412989 322.440763 38.412989 C 330.022017 38.412989 336.411728 40.681788 341.609896 45.219385 C 346.821735 49.742217 349.427927 55.478466 349.427927 62.428131 C 349.427927 69.363579 346.886807 75.077955 341.803474 79.572352 C 336.720687 84.06675 330.26645 86.313675 322.440763 86.313675 C 314.32799 86.313675 307.75181 84.080967 302.711676 79.615552 Z M 314.794983 54.739152 C 312.77007 56.735082 311.757888 59.298075 311.757888 62.428131 C 311.757888 65.54397 312.726871 68.085637 314.665384 70.052585 C 316.618115 72.019533 319.181655 73.003281 322.35491 73.003281 C 325.413332 73.003281 327.926017 72.005316 329.892965 70.009385 C 331.859913 67.999238 332.843661 65.46468 332.843661 62.406805 C 332.843661 59.290966 331.831478 56.735082 329.806566 54.739152 C 327.7822 52.743222 325.297951 51.745256 322.35491 51.745256 C 319.353906 51.745256 316.833566 52.743222 314.794983 54.739152 Z M 382.777461 39.748348 L 400.78294 39.748348 L 365.223665 107.938076 L 347.218186 107.938076 L 362.832923 77.935689 L 341.402647 39.748348 L 359.408672 39.748348 L 372.008187 62.944886 Z M 382.777461 39.748348 " stroke="#5da9e9" stroke-width="6.616598" stroke-opacity="1" stroke-miterlimit="4"/><g fill="#003344" fill-opacity="1"><g transform="translate(827.924772, 1502.459588)"><g><path d="M 37.8125 -519.90625 L 227.5 -519.90625 C 280.4375 -519.90625 323.285156 -506.25 356.046875 -478.9375 C 388.816406 -451.632812 405.203125 -411.929688 405.203125 -359.828125 C 405.203125 -307.734375 388.609375 -266.878906 355.421875 -237.265625 C 322.234375 -207.648438 279.59375 -192.84375 227.5 -192.84375 L 156.28125 -192.84375 L 156.28125 0 L 37.8125 0 Z M 156.28125 -287.359375 L 189.6875 -287.359375 C 216.15625 -287.359375 237.894531 -292.710938 254.90625 -303.421875 C 271.925781 -314.140625 280.4375 -331.6875 280.4375 -356.0625 C 280.4375 -380.84375 271.925781 -398.585938 254.90625 -409.296875 C 237.894531 -420.015625 216.15625 -425.375 189.6875 -425.375 L 156.28125 -425.375 Z M 156.28125 -287.359375 "/></g></g></g><g fill="#003344" fill-opacity="1"><g transform="translate(1188.388908, 1502.459588)"><g><path d="M 68.375 -38.4375 C 32.457031 -70.363281 14.5 -111.328125 14.5 -161.328125 C 14.5 -211.328125 33.191406 -252.394531 70.578125 -284.53125 C 107.972656 -316.664062 154.1875 -332.734375 209.21875 -332.734375 C 263.414062 -332.734375 309.101562 -316.554688 346.28125 -284.203125 C 383.46875 -251.859375 402.0625 -210.898438 402.0625 -161.328125 C 402.0625 -111.753906 383.890625 -70.894531 347.546875 -38.75 C 311.203125 -6.613281 265.09375 9.453125 209.21875 9.453125 C 151.238281 9.453125 104.289062 -6.507812 68.375 -38.4375 Z M 154.703125 -216.15625 C 140.210938 -201.875 132.96875 -183.597656 132.96875 -161.328125 C 132.96875 -139.054688 139.898438 -120.882812 153.765625 -106.8125 C 167.628906 -92.738281 185.90625 -85.703125 208.59375 -85.703125 C 230.4375 -85.703125 248.394531 -92.84375 262.46875 -107.125 C 276.539062 -121.414062 283.578125 -139.484375 283.578125 -161.328125 C 283.578125 -183.597656 276.328125 -201.875 261.828125 -216.15625 C 247.335938 -230.4375 229.59375 -237.578125 208.59375 -237.578125 C 187.164062 -237.578125 169.203125 -230.4375 154.703125 -216.15625 Z M 154.703125 -216.15625 "/></g></g></g><g fill="#003344" fill-opacity="1"><g transform="translate(1545.702172, 1502.459588)"><g><path d="M 178.34375 -332.734375 C 196.832031 -332.734375 215.109375 -330.632812 233.171875 -326.4375 C 251.234375 -322.238281 264.675781 -318.035156 273.5 -313.828125 L 286.734375 -307.53125 L 250.1875 -234.4375 C 224.976562 -247.875 201.03125 -254.59375 178.34375 -254.59375 C 165.738281 -254.59375 156.8125 -253.226562 151.5625 -250.5 C 146.3125 -247.769531 143.6875 -242.625 143.6875 -235.0625 C 143.6875 -233.382812 143.894531 -231.703125 144.3125 -230.015625 C 144.726562 -228.335938 145.566406 -226.765625 146.828125 -225.296875 C 148.085938 -223.828125 149.242188 -222.566406 150.296875 -221.515625 C 151.347656 -220.460938 153.132812 -219.304688 155.65625 -218.046875 C 158.175781 -216.785156 160.171875 -215.835938 161.640625 -215.203125 C 163.109375 -214.578125 165.523438 -213.632812 168.890625 -212.375 C 172.253906 -211.113281 174.773438 -210.164062 176.453125 -209.53125 C 178.128906 -208.90625 180.960938 -207.960938 184.953125 -206.703125 C 188.953125 -205.441406 192 -204.601562 194.09375 -204.1875 C 207.125 -200.40625 218.46875 -196.203125 228.125 -191.578125 C 237.789062 -186.953125 247.976562 -180.648438 258.6875 -172.671875 C 269.40625 -164.691406 277.703125 -154.609375 283.578125 -142.421875 C 289.460938 -130.234375 292.40625 -116.367188 292.40625 -100.828125 C 292.40625 -27.304688 241.359375 9.453125 139.265625 9.453125 C 116.160156 9.453125 94.207031 5.882812 73.40625 -1.25 C 52.613281 -8.394531 37.597656 -15.539062 28.359375 -22.6875 L 14.5 -34.03125 L 59.875 -110.28125 C 63.226562 -107.34375 67.632812 -103.875 73.09375 -99.875 C 78.5625 -95.882812 88.4375 -90.425781 102.71875 -83.5 C 117 -76.570312 129.394531 -73.109375 139.90625 -73.109375 C 163.007812 -73.109375 174.5625 -80.878906 174.5625 -96.421875 C 174.5625 -103.554688 171.617188 -109.117188 165.734375 -113.109375 C 159.859375 -117.109375 149.878906 -121.628906 135.796875 -126.671875 C 121.722656 -131.710938 110.695312 -136.332031 102.71875 -140.53125 C 82.550781 -151.03125 66.585938 -162.894531 54.828125 -176.125 C 43.066406 -189.363281 37.1875 -206.910156 37.1875 -228.765625 C 37.1875 -261.523438 49.894531 -287.039062 75.3125 -305.3125 C 100.726562 -323.59375 135.070312 -332.734375 178.34375 -332.734375 Z M 178.34375 -332.734375 "/></g></g></g><g fill="#003344" fill-opacity="1"><g transform="translate(1796.514099, 1502.459588)"><g><path d="M 56.71875 -323.28125 L 56.71875 -443.65625 L 168.265625 -443.65625 L 168.265625 -323.28125 L 236.328125 -323.28125 L 236.328125 -238.203125 L 168.265625 -238.203125 L 168.265625 -135.484375 C 168.265625 -105.660156 176.664062 -90.75 193.46875 -90.75 C 197.664062 -90.75 202.078125 -91.585938 206.703125 -93.265625 C 211.328125 -94.941406 214.898438 -96.625 217.421875 -98.3125 L 221.203125 -100.828125 L 248.921875 -10.71875 C 224.972656 2.726562 197.664062 9.453125 167 9.453125 C 145.988281 9.453125 127.921875 5.773438 112.796875 -1.578125 C 97.671875 -8.929688 86.222656 -18.800781 78.453125 -31.1875 C 70.679688 -43.582031 65.113281 -56.609375 61.75 -70.265625 C 58.394531 -83.921875 56.71875 -98.519531 56.71875 -114.0625 L 56.71875 -238.203125 L 10.078125 -238.203125 L 10.078125 -323.28125 Z M 56.71875 -323.28125 "/></g></g></g><g fill="#003344" fill-opacity="1"><g transform="translate(1986.198127, 1502.459588)"><g><path d="M 364.875 -146.203125 L 130.453125 -146.203125 C 130.453125 -123.515625 137.800781 -106.707031 152.5 -95.78125 C 167.207031 -84.863281 183.175781 -79.40625 200.40625 -79.40625 C 218.46875 -79.40625 232.75 -81.816406 243.25 -86.640625 C 253.75 -91.472656 265.722656 -101.035156 279.171875 -115.328125 L 359.84375 -75 C 326.226562 -18.695312 270.347656 9.453125 192.203125 9.453125 C 143.472656 9.453125 101.671875 -7.242188 66.796875 -40.640625 C 31.929688 -74.046875 14.5 -114.273438 14.5 -161.328125 C 14.5 -208.378906 31.929688 -248.707031 66.796875 -282.3125 C 101.671875 -315.925781 143.472656 -332.734375 192.203125 -332.734375 C 243.460938 -332.734375 285.160156 -317.921875 317.296875 -288.296875 C 349.441406 -258.679688 365.515625 -216.359375 365.515625 -161.328125 C 365.515625 -153.765625 365.300781 -148.722656 364.875 -146.203125 Z M 133.59375 -207.96875 L 256.484375 -207.96875 C 253.960938 -224.769531 247.34375 -237.6875 236.625 -246.71875 C 225.914062 -255.75 212.160156 -260.265625 195.359375 -260.265625 C 176.867188 -260.265625 162.160156 -255.429688 151.234375 -245.765625 C 140.316406 -236.109375 134.4375 -223.507812 133.59375 -207.96875 Z M 133.59375 -207.96875 "/></g></g></g><g fill="#003344" fill-opacity="1"><g transform="translate(2306.960654, 1502.459588)"><g><path d="M 37.8125 0 L 37.8125 -323.28125 L 149.359375 -323.28125 L 149.359375 -276.65625 L 150.609375 -276.65625 C 151.453125 -278.332031 152.816406 -280.429688 154.703125 -282.953125 C 156.597656 -285.472656 160.695312 -289.882812 167 -296.1875 C 173.300781 -302.488281 180.019531 -308.160156 187.15625 -313.203125 C 194.300781 -318.242188 203.546875 -322.757812 214.890625 -326.75 C 226.234375 -330.738281 237.785156 -332.734375 249.546875 -332.734375 C 261.734375 -332.734375 273.707031 -331.050781 285.46875 -327.6875 C 297.238281 -324.332031 305.851562 -320.972656 311.3125 -317.609375 L 320.140625 -312.578125 L 273.5 -218.046875 C 259.632812 -229.804688 240.3125 -235.6875 215.53125 -235.6875 C 202.082031 -235.6875 190.523438 -232.742188 180.859375 -226.859375 C 171.203125 -220.984375 164.375 -213.84375 160.375 -205.4375 C 156.382812 -197.039062 153.550781 -189.898438 151.875 -184.015625 C 150.195312 -178.128906 149.359375 -173.507812 149.359375 -170.15625 L 149.359375 0 Z M 37.8125 0 "/></g></g></g><g fill="#003344" fill-opacity="1"><g transform="translate(2561.55369, 1502.459588)"><g><path d="M 37.8125 -519.90625 L 199.140625 -519.90625 C 247.867188 -519.90625 286.726562 -509.503906 315.71875 -488.703125 C 344.707031 -467.910156 359.203125 -434.195312 359.203125 -387.5625 C 359.203125 -335.46875 337.566406 -298.285156 294.296875 -276.015625 C 368.234375 -262.992188 405.203125 -219.300781 405.203125 -144.9375 C 405.203125 -101.25 390.078125 -66.171875 359.828125 -39.703125 C 329.585938 -13.234375 288 0 235.0625 0 L 37.8125 0 Z M 156.28125 -316.359375 L 165.734375 -316.359375 C 192.203125 -316.359375 211.945312 -320.976562 224.96875 -330.21875 C 238 -339.457031 244.515625 -354.582031 244.515625 -375.59375 C 244.515625 -410.882812 218.253906 -428.53125 165.734375 -428.53125 L 156.28125 -428.53125 Z M 156.28125 -91.375 L 193.46875 -91.375 C 251.445312 -91.375 280.4375 -110.703125 280.4375 -149.359375 C 280.4375 -172.460938 273.1875 -189.054688 258.6875 -199.140625 C 244.195312 -209.222656 222.457031 -214.265625 193.46875 -214.265625 L 156.28125 -214.265625 Z M 156.28125 -91.375 "/></g></g></g><g fill="#003344" fill-opacity="1"><g transform="translate(2922.017826, 1502.459588)"><g><path d="M 68.375 -38.4375 C 32.457031 -70.363281 14.5 -111.328125 14.5 -161.328125 C 14.5 -211.328125 33.191406 -252.394531 70.578125 -284.53125 C 107.972656 -316.664062 154.1875 -332.734375 209.21875 -332.734375 C 263.414062 -332.734375 309.101562 -316.554688 346.28125 -284.203125 C 383.46875 -251.859375 402.0625 -210.898438 402.0625 -161.328125 C 402.0625 -111.753906 383.890625 -70.894531 347.546875 -38.75 C 311.203125 -6.613281 265.09375 9.453125 209.21875 9.453125 C 151.238281 9.453125 104.289062 -6.507812 68.375 -38.4375 Z M 154.703125 -216.15625 C 140.210938 -201.875 132.96875 -183.597656 132.96875 -161.328125 C 132.96875 -139.054688 139.898438 -120.882812 153.765625 -106.8125 C 167.628906 -92.738281 185.90625 -85.703125 208.59375 -85.703125 C 230.4375 -85.703125 248.394531 -92.84375 262.46875 -107.125 C 276.539062 -121.414062 283.578125 -139.484375 283.578125 -161.328125 C 283.578125 -183.597656 276.328125 -201.875 261.828125 -216.15625 C 247.335938 -230.4375 229.59375 -237.578125 208.59375 -237.578125 C 187.164062 -237.578125 169.203125 -230.4375 154.703125 -216.15625 Z M 154.703125 -216.15625 "/></g></g></g><g fill="#003344" fill-opacity="1"><g transform="translate(3279.330983, 1502.459588)"><g><path d="M 282.953125 -323.28125 L 411.515625 -323.28125 L 157.546875 163.84375 L 28.984375 163.84375 L 140.53125 -50.421875 L -12.609375 -323.28125 L 115.953125 -323.28125 L 206.078125 -157.546875 Z M 282.953125 -323.28125 "/></g></g></g><path fill="#000000" d="M 112.316406 1136.539062 C 112.316406 1146.152344 112.601562 1151.164062 112.601562 1151.164062 C 112.601562 1151.164062 112.601562 1146.269531 113.238281 1137.113281 C 113.640625 1130.261719 114.160156 1120.933594 114.964844 1109.417969 C 115.945312 1096.058594 117.328125 1079.707031 119.398438 1060.878906 C 120.496094 1051.4375 121.703125 1041.359375 123.027344 1030.707031 C 124.082031 1019.648438 126.097656 1008.765625 129.078125 998.058594 C 130.71875 992.609375 133.308594 987.660156 136.851562 983.203125 L 138.117188 981.648438 C 138.558594 981.371094 138.960938 981.042969 139.328125 980.671875 C 140.34375 979.996094 141.417969 979.441406 142.554688 979 C 145.214844 977.957031 147.957031 977.246094 150.789062 976.871094 C 163.808594 975.453125 176.824219 975.453125 189.839844 976.871094 C 196.695312 977.390625 203.664062 978.136719 210.808594 978.886719 L 221.980469 978.886719 C 225.550781 978.886719 229.179688 979.230469 232.808594 979.519531 C 247.382812 980.554688 262.414062 982.285156 277.910156 983.894531 C 285.683594 984.703125 293.574219 985.449219 301.636719 986.027344 C 309.703125 986.601562 317.707031 986.71875 325.828125 987.121094 L 375.535156 988.960938 C 409.230469 990.574219 444.078125 990.171875 479.5 989.597656 C 553.9375 988.136719 628.105469 982.859375 702 973.761719 C 705.585938 973.179688 709.195312 972.816406 712.828125 972.667969 C 715.59375 972.667969 715.9375 973.128906 716.972656 974.742188 C 718.773438 981.277344 719.714844 987.9375 719.796875 994.71875 C 721.007812 1009.574219 722.101562 1023.796875 723.195312 1037.386719 C 725.269531 1064.5625 726.902344 1089.226562 728.089844 1111.375 C 730.453125 1155.425781 731.375 1189.28125 731.605469 1212.023438 C 731.835938 1234.769531 732.296875 1246.574219 732.296875 1246.574219 C 732.296875 1246.574219 732.988281 1232.636719 734.195312 1207.015625 C 735.40625 1181.394531 736.328125 1144.425781 735.867188 1097.5 C 735.519531 1074.179688 734.714844 1048.558594 733.449219 1020.863281 C 733.101562 1013.953125 732.757812 1006.925781 732.410156 999.730469 C 732.410156 996.160156 732.066406 992.53125 731.835938 988.90625 C 731.605469 985.277344 731.546875 981.824219 731.085938 977.390625 C 730.875 974.734375 730.1875 972.210938 729.023438 969.816406 C 727.863281 967.421875 726.300781 965.320312 724.347656 963.511719 C 721.875 961.625 719.089844 960.511719 715.996094 960.171875 C 713.578125 959.890625 711.15625 959.890625 708.738281 960.171875 L 685.699219 962.476562 C 623.207031 968.234375 553.570312 972.957031 479.152344 974.566406 C 441.714844 975.316406 405.429688 975.660156 370.753906 974.566406 L 319.839844 973.472656 C 303.136719 973.472656 287.410156 972.09375 271.628906 970.882812 C 255.847656 969.671875 240.527344 968.292969 225.550781 967.945312 C 221.808594 967.945312 218.066406 967.945312 214.03125 967.945312 C 213.304688 968.003906 212.574219 968.003906 211.84375 967.945312 L 209.136719 967.945312 L 203.722656 967.601562 C 196.464844 965.929688 189.324219 965.929688 182.296875 965.527344 C 175.269531 965.125 168.300781 965.527344 161.445312 965.875 C 154.421875 966.21875 147.566406 967.484375 140.882812 969.671875 C 137.089844 970.988281 133.804688 973.097656 131.035156 976.007812 C 128.78125 978.664062 126.863281 981.542969 125.273438 984.644531 C 122.527344 990.386719 120.609375 996.394531 119.515625 1002.667969 C 117.605469 1013.6875 116.359375 1024.78125 115.769531 1035.949219 C 114.964844 1046.3125 114.273438 1056.15625 113.753906 1065.253906 C 112.71875 1083.566406 112.316406 1099.226562 112.199219 1111.953125 C 112.257812 1122.027344 112.257812 1130.261719 112.316406 1136.539062 Z M 112.316406 1136.539062 " fill-opacity="1" fill-rule="nonzero"/><path fill="#000000" d="M 111.738281 1195.039062 C 111.738281 1223.367188 112.660156 1264.652344 117.5 1315.957031 C 119.671875 1344.339844 123.511719 1372.496094 129.019531 1400.425781 C 132.4375 1416.390625 137.660156 1431.746094 144.683594 1446.488281 C 148.566406 1454.324219 153.117188 1461.753906 158.335938 1468.769531 C 163.921875 1476.003906 170.257812 1482.511719 177.34375 1488.289062 C 184.851562 1494.0625 192.886719 1498.96875 201.449219 1503.007812 C 210.015625 1507.046875 218.914062 1510.125 228.144531 1512.242188 C 246.863281 1516.566406 265.8125 1519.3125 284.992188 1520.476562 C 323.296875 1523.527344 363.269531 1526.234375 404.621094 1527.730469 C 487.851562 1531.300781 565.894531 1531.359375 635.53125 1529.460938 C 652.8125 1528.941406 670.089844 1528.367188 686.332031 1527.675781 C 690.675781 1527.570312 694.996094 1527.207031 699.292969 1526.582031 C 701.789062 1526.242188 704.191406 1525.554688 706.492188 1524.527344 C 708.796875 1523.5 710.90625 1522.167969 712.828125 1520.535156 C 714.582031 1518.699219 716.019531 1516.640625 717.136719 1514.359375 C 718.257812 1512.082031 719.011719 1509.6875 719.394531 1507.175781 C 720.257812 1502.742188 720.429688 1498.941406 720.832031 1495.140625 C 723.769531 1464.625 725.902344 1436.410156 727.515625 1410.730469 C 730.742188 1359.371094 731.71875 1318.605469 732.121094 1290.160156 C 732.527344 1261.714844 732.121094 1246.6875 732.121094 1246.6875 C 732.121094 1246.6875 731.144531 1263.210938 729.359375 1292.75 C 727.574219 1322.289062 724.347656 1365.070312 718.933594 1417.351562 C 716.167969 1443.378906 713.171875 1472.167969 708.910156 1502.28125 C 708.617188 1505.339844 707.636719 1508.164062 705.972656 1510.746094 C 705.152344 1511.777344 704.179688 1512.628906 703.046875 1513.300781 C 701.917969 1513.976562 700.703125 1514.429688 699.40625 1514.660156 C 691.875 1515.699219 684.3125 1516.101562 676.714844 1515.871094 L 626.429688 1516.332031 C 557.773438 1516.332031 482.4375 1515.351562 404.796875 1512.011719 C 358.71875 1509.996094 315.058594 1507.523438 274.335938 1504.527344 C 267.945312 1504.007812 261.664062 1503.375 255.558594 1502.570312 L 252.96875 1502.222656 C 240.902344 1500.734375 229.074219 1498.144531 217.488281 1494.453125 C 209.015625 1491.679688 200.96875 1487.976562 193.355469 1483.339844 C 186.109375 1478.835938 179.542969 1473.5 173.65625 1467.332031 C 168.066406 1461.199219 163.128906 1454.578125 158.855469 1447.464844 C 154.816406 1440.472656 151.320312 1433.21875 148.371094 1425.703125 C 142.824219 1411.242188 138.601562 1396.40625 135.699219 1381.191406 C 132.761719 1366.625 130.746094 1352.402344 128.847656 1338.871094 C 126.945312 1325.339844 125.273438 1312.558594 123.777344 1300.410156 C 118.476562 1256.765625 116 1222.160156 114.5625 1197.34375 C 114.5625 1194.578125 114.273438 1191.929688 114.160156 1189.394531 C 112.949219 1164.234375 112.660156 1151.277344 112.660156 1151.277344 C 112.660156 1151.277344 112.660156 1155.136719 112.316406 1162.792969 C 112.316406 1165.441406 112.316406 1168.550781 112.316406 1172.007812 C 111.855469 1178.109375 111.738281 1185.882812 111.738281 1195.039062 Z M 111.738281 1195.039062 " fill-opacity="1" fill-rule="nonzero"/><path fill="#ffcf00" d="M 113.238281 1137.230469 C 113.238281 1139.53125 113.753906 1142.527344 114.101562 1146.152344 C 114.101562 1151.105469 115.367188 1157.210938 116.519531 1164.464844 C 117.097656 1168.09375 117.5 1172.007812 118.421875 1175.980469 C 119.34375 1179.953125 120.265625 1184.558594 121.300781 1189.222656 C 126.582031 1212.148438 134.261719 1234.238281 144.339844 1255.496094 C 151.339844 1269.824219 159.292969 1283.59375 168.207031 1296.816406 C 177.121094 1310.035156 186.90625 1322.578125 197.558594 1334.4375 C 209.855469 1348.113281 223.0625 1360.835938 237.1875 1372.613281 C 243.8125 1378.371094 250.894531 1383.4375 257.578125 1388.621094 C 260.800781 1391.269531 264.371094 1393.34375 267.714844 1395.703125 L 276.007812 1401.460938 C 278.945312 1403.476562 281.765625 1405.375 284.703125 1407.21875 L 275.085938 1414.703125 C 273.53125 1415.972656 272.148438 1417.238281 270.824219 1418.503906 L 268.636719 1420.632812 C 265.773438 1423.46875 263.066406 1426.445312 260.515625 1429.558594 C 255.753906 1435.316406 251.664062 1441.515625 248.246094 1448.15625 C 246.714844 1450.949219 245.539062 1453.882812 244.722656 1456.960938 C 243.902344 1460.039062 243.464844 1463.167969 243.40625 1466.351562 C 243.402344 1469.605469 243.664062 1472.835938 244.191406 1476.042969 C 244.71875 1479.25 245.503906 1482.394531 246.546875 1485.476562 C 247.589844 1488.554688 248.878906 1491.527344 250.410156 1494.398438 C 251.941406 1497.265625 253.695312 1499.988281 255.675781 1502.570312 C 261.78125 1503.375 268.058594 1504.007812 274.453125 1504.527344 C 315.175781 1507.523438 358.832031 1509.996094 404.910156 1512.011719 C 482.839844 1515.351562 557.890625 1516.5625 626.546875 1516.332031 L 676.828125 1515.871094 C 684.425781 1516.101562 691.992188 1515.699219 699.523438 1514.660156 C 700.820312 1514.429688 702.03125 1513.976562 703.164062 1513.300781 C 704.292969 1512.628906 705.269531 1511.777344 706.089844 1510.746094 C 707.753906 1508.164062 708.730469 1505.339844 709.027344 1502.28125 C 712.828125 1472.167969 716.167969 1443.378906 718.933594 1417.351562 C 724.347656 1365.070312 727.515625 1322.347656 729.53125 1292.695312 C 731.546875 1263.039062 732.296875 1246.628906 732.296875 1246.628906 C 732.296875 1246.628906 732.296875 1235.113281 731.605469 1212.082031 C 730.914062 1189.050781 730.453125 1155.480469 728.089844 1111.320312 C 726.902344 1089.207031 725.269531 1064.546875 723.195312 1037.328125 C 722.101562 1023.742188 721.007812 1009.519531 719.796875 994.664062 C 719.726562 987.921875 718.804688 981.300781 717.03125 974.796875 C 715.996094 973.1875 715.648438 972.957031 712.886719 972.726562 C 709.234375 972.871094 705.605469 973.234375 702 973.820312 C 628.035156 983.078125 553.792969 988.511719 479.269531 990.113281 C 443.847656 990.691406 409 991.09375 375.304688 989.480469 L 325.597656 987.636719 C 317.476562 987.234375 309.472656 987.121094 301.40625 986.542969 C 293.34375 985.96875 285.453125 985.21875 277.679688 984.414062 C 262.183594 982.800781 247.152344 981.074219 232.578125 980.039062 C 228.949219 980.039062 225.320312 979.578125 221.75 979.40625 L 210.289062 979.40625 C 203.148438 978.65625 196.175781 977.90625 189.324219 977.390625 C 176.304688 975.96875 163.289062 975.96875 150.273438 977.390625 C 147.441406 977.765625 144.695312 978.476562 142.035156 979.519531 C 140.898438 979.960938 139.824219 980.515625 138.808594 981.191406 C 138.445312 981.5625 138.039062 981.886719 137.601562 982.167969 L 136.851562 983.203125 C 133.398438 987.660156 130.882812 992.59375 129.304688 998.003906 C 126.328125 1008.707031 124.3125 1019.589844 123.257812 1030.648438 C 121.933594 1041.300781 120.722656 1051.378906 119.628906 1060.820312 C 117.558594 1079.648438 116.175781 1096.003906 115.195312 1109.359375 C 114.160156 1121.050781 113.8125 1130.378906 113.238281 1137.230469 Z M 113.238281 1137.230469 " fill-opacity="1" fill-rule="nonzero"/><path fill="#feefe5" d="M 114.503906 1197.34375 C 115.945312 1222.160156 118.421875 1256.765625 123.71875 1300.410156 C 125.21875 1312.558594 126.828125 1325.398438 128.789062 1338.871094 C 130.746094 1352.34375 132.703125 1366.625 135.640625 1381.191406 C 138.542969 1396.40625 142.765625 1411.242188 148.3125 1425.703125 C 151.300781 1433.222656 154.832031 1440.476562 158.910156 1447.464844 C 163.1875 1454.578125 168.121094 1461.199219 173.714844 1467.332031 C 179.601562 1473.5 186.167969 1478.835938 193.414062 1483.339844 C 201.007812 1487.972656 209.035156 1491.675781 217.488281 1494.453125 C 229.054688 1498.140625 240.863281 1500.730469 252.910156 1502.222656 C 250.707031 1499.855469 248.707031 1497.332031 246.902344 1494.648438 C 245.097656 1491.964844 243.515625 1489.15625 242.15625 1486.222656 C 240.796875 1483.289062 239.675781 1480.269531 238.796875 1477.15625 C 237.914062 1474.046875 237.28125 1470.886719 236.898438 1467.675781 C 236.378906 1464.070312 236.378906 1460.460938 236.898438 1456.851562 C 237.464844 1453.019531 238.445312 1449.296875 239.835938 1445.679688 C 242.785156 1437.902344 246.625 1430.589844 251.355469 1423.742188 C 253.90625 1420.042969 256.652344 1416.492188 259.59375 1413.089844 C 260.332031 1412.167969 261.121094 1411.285156 261.953125 1410.441406 C 262.203125 1410.171875 262.433594 1409.882812 262.644531 1409.578125 L 263.566406 1408.484375 C 263.179688 1408.257812 262.777344 1408.066406 262.355469 1407.910156 L 261.839844 1407.910156 L 260.570312 1407.21875 C 257.058594 1405.03125 253.3125 1403.074219 249.800781 1400.539062 C 242.773438 1395.585938 235.171875 1390.867188 228.085938 1384.992188 C 212.621094 1373.105469 198.375 1359.898438 185.347656 1345.378906 C 174.976562 1333.800781 165.566406 1321.492188 157.117188 1308.449219 C 148.664062 1295.40625 141.277344 1281.785156 134.953125 1267.589844 C 125.085938 1245.0625 118.269531 1221.644531 114.503906 1197.34375 Z M 114.503906 1197.34375 " fill-opacity="1" fill-rule="nonzero"/><path fill="#000000" d="M 111.96875 1171.71875 C 112.371094 1179.203125 113.179688 1187.554688 114.390625 1196.707031 C 114.390625 1196.707031 114.390625 1197.113281 114.390625 1197.34375 C 118.246094 1221.578125 125.140625 1244.914062 135.066406 1267.359375 C 141.390625 1281.554688 148.78125 1295.175781 157.230469 1308.21875 C 165.683594 1321.261719 175.09375 1333.570312 185.464844 1345.148438 C 198.488281 1359.667969 212.734375 1372.875 228.203125 1384.761719 C 235.285156 1390.519531 242.890625 1395.355469 249.914062 1400.308594 C 253.429688 1402.84375 257.171875 1404.800781 260.6875 1406.988281 L 261.953125 1407.679688 L 262.472656 1407.679688 C 262.890625 1407.835938 263.296875 1408.027344 263.683594 1408.253906 L 262.761719 1409.347656 C 262.546875 1409.652344 262.316406 1409.941406 262.070312 1410.210938 C 261.234375 1411.054688 260.449219 1411.9375 259.707031 1412.863281 C 256.765625 1416.261719 254.023438 1419.8125 251.472656 1423.511719 C 246.738281 1430.359375 242.898438 1437.671875 239.953125 1445.453125 C 238.558594 1449.066406 237.582031 1452.789062 237.015625 1456.621094 C 236.492188 1460.230469 236.492188 1463.839844 237.015625 1467.445312 C 237.394531 1470.65625 238.027344 1473.816406 238.910156 1476.925781 C 239.792969 1480.039062 240.914062 1483.058594 242.273438 1485.992188 C 243.632812 1488.925781 245.214844 1491.734375 247.015625 1494.417969 C 248.820312 1497.101562 250.824219 1499.628906 253.027344 1501.992188 C 254.179688 1503.203125 255.273438 1504.296875 256.25 1505.21875 C 257.832031 1506.671875 259.503906 1508.015625 261.261719 1509.25 L 262.703125 1510.285156 L 261.433594 1508.960938 C 259.839844 1507.457031 258.363281 1505.84375 257 1504.125 L 255.617188 1502.339844 C 253.640625 1499.757812 251.882812 1497.035156 250.351562 1494.167969 C 248.820312 1491.296875 247.535156 1488.324219 246.488281 1485.246094 C 245.445312 1482.164062 244.660156 1479.019531 244.136719 1475.8125 C 243.609375 1472.605469 243.347656 1469.375 243.351562 1466.121094 C 243.40625 1462.9375 243.84375 1459.808594 244.664062 1456.730469 C 245.480469 1453.652344 246.65625 1450.71875 248.1875 1447.925781 C 251.605469 1441.285156 255.695312 1435.085938 260.457031 1429.328125 C 263 1426.355469 265.691406 1423.511719 268.519531 1420.808594 L 270.707031 1418.675781 C 272.035156 1417.410156 273.414062 1416.144531 274.972656 1414.875 L 284.703125 1407.21875 C 282.054688 1405.320312 278.945312 1403.417969 276.007812 1401.460938 L 267.714844 1395.703125 C 264.371094 1393.34375 260.800781 1391.269531 257.578125 1388.621094 C 250.894531 1383.4375 243.808594 1378.542969 237.1875 1372.613281 C 223.0625 1360.835938 209.855469 1348.113281 197.558594 1334.4375 C 186.960938 1322.59375 177.230469 1310.078125 168.367188 1296.886719 C 159.503906 1283.695312 151.589844 1269.957031 144.628906 1255.671875 C 134.550781 1234.410156 126.871094 1212.320312 121.589844 1189.394531 C 120.550781 1184.730469 119.574219 1180.296875 118.707031 1176.152344 C 117.84375 1172.007812 117.382812 1168.09375 116.808594 1164.636719 C 115.65625 1157.382812 114.675781 1151.277344 114.390625 1146.328125 C 114.042969 1142.699219 113.753906 1139.707031 113.523438 1137.402344 C 113.179688 1133.3125 112.949219 1131.242188 112.949219 1131.242188 C 112.949219 1131.242188 112.949219 1133.140625 112.601562 1137 C 112.601562 1139.878906 112.371094 1143.714844 111.914062 1148.515625 C 111.394531 1154.617188 111.453125 1162.507812 111.96875 1171.71875 Z M 111.96875 1171.71875 " fill-opacity="1" fill-rule="nonzero"/><g clip-path="url(#1458cbc952)"><path fill="#000000" d="M 311.199219 986.488281 C 311.320312 986.566406 311.425781 986.65625 311.523438 986.761719 C 311.617188 986.867188 311.699219 986.984375 311.765625 987.109375 C 311.835938 987.234375 311.886719 987.367188 311.921875 987.503906 C 311.957031 987.644531 311.972656 987.785156 311.972656 987.925781 C 311.972656 988.070312 311.953125 988.210938 311.921875 988.347656 C 311.886719 988.484375 311.835938 988.617188 311.765625 988.742188 C 311.699219 988.867188 311.617188 988.984375 311.523438 989.089844 C 311.425781 989.195312 311.320312 989.285156 311.199219 989.367188 C 310.59375 989.65625 309.960938 989.867188 309.300781 990 C 308.203125 990.402344 307.226562 990.746094 306.132812 991.035156 C 304 991.785156 301.925781 992.417969 299.96875 992.992188 C 299.300781 993.035156 298.65625 993.179688 298.035156 993.425781 C 297.414062 993.671875 296.847656 994.003906 296.328125 994.429688 C 295.8125 994.851562 295.375 995.34375 295.011719 995.90625 C 294.648438 996.464844 294.382812 997.070312 294.207031 997.714844 C 293.632812 1000.25 295.476562 1002.261719 296.859375 1003.933594 L 300.082031 1007.792969 L 305.84375 1014.355469 L 315.40625 1025.8125 C 314.65625 1024.777344 311.601562 1020.054688 306.476562 1012.800781 L 301.464844 1005.546875 L 298.699219 1001.628906 C 298.011719 1000.652344 297.261719 999.441406 298.011719 998.234375 C 298.757812 997.023438 300.027344 996.964844 301.40625 996.621094 L 307.511719 995.179688 L 310.910156 994.71875 C 312.503906 994.492188 313.980469 993.957031 315.347656 993.109375 C 315.679688 992.871094 315.984375 992.605469 316.257812 992.304688 C 316.535156 992.003906 316.777344 991.675781 316.984375 991.324219 C 317.191406 990.972656 317.355469 990.601562 317.484375 990.214844 C 317.613281 989.828125 317.699219 989.433594 317.742188 989.027344 C 317.785156 988.621094 317.785156 988.214844 317.742188 987.808594 C 317.699219 987.402344 317.617188 987.007812 317.488281 986.621094 C 317.363281 986.230469 317.195312 985.863281 316.988281 985.507812 C 316.785156 985.15625 316.542969 984.832031 316.269531 984.527344 C 313.101562 979.863281 309.703125 974.914062 306.074219 969.730469 L 300.601562 961.957031 C 299.621094 960.921875 299.96875 959.769531 301.0625 959.65625 L 314.253906 955.046875 L 317.824219 953.839844 L 320.414062 952.917969 C 321.503906 952.574219 322.503906 952.054688 323.410156 951.363281 C 323.824219 951.011719 324.195312 950.621094 324.527344 950.191406 C 324.859375 949.761719 325.140625 949.300781 325.375 948.8125 C 325.609375 948.320312 325.792969 947.8125 325.921875 947.285156 C 326.046875 946.757812 326.121094 946.222656 326.136719 945.683594 C 326.152344 945.140625 326.113281 944.601562 326.015625 944.066406 C 325.921875 943.535156 325.769531 943.015625 325.5625 942.511719 C 325.359375 942.011719 325.105469 941.535156 324.800781 941.085938 C 324.496094 940.636719 324.148438 940.222656 323.757812 939.847656 C 319.550781 935.757812 315.289062 931.441406 310.910156 927.121094 C 307.917969 924.1875 308.953125 925.164062 308.664062 924.820312 L 309.011719 924.820312 L 347.542969 927.527344 C 406.121094 931.210938 456.980469 932.9375 493.265625 934.609375 L 548.847656 937.140625 L 550.058594 937.140625 C 545.101562 936.335938 523.332031 932.996094 491.019531 929.367188 C 454.097656 925.164062 403.242188 920.902344 348.175781 917.449219 L 305.382812 914.109375 C 304.15625 914.03125 302.976562 914.21875 301.835938 914.671875 C 300.695312 915.128906 299.710938 915.804688 298.875 916.699219 C 298.046875 917.605469 297.445312 918.640625 297.0625 919.804688 C 296.683594 920.96875 296.554688 922.160156 296.683594 923.378906 C 296.867188 924.617188 297.28125 925.773438 297.917969 926.851562 C 298.554688 927.925781 299.375 928.84375 300.371094 929.597656 L 304.519531 933.457031 C 308.492188 937.257812 312.351562 940.769531 316.039062 944.28125 C 316.109375 944.328125 316.167969 944.390625 316.207031 944.46875 C 316.25 944.542969 316.269531 944.625 316.269531 944.714844 C 316.269531 944.800781 316.25 944.882812 316.207031 944.957031 C 316.167969 945.035156 316.109375 945.097656 316.039062 945.144531 L 315.117188 945.492188 L 311.546875 946.871094 L 297.203125 952.628906 C 296.554688 952.867188 295.949219 953.1875 295.386719 953.59375 C 294.828125 954 294.332031 954.476562 293.90625 955.019531 C 293.480469 955.566406 293.132812 956.15625 292.871094 956.796875 C 292.609375 957.4375 292.441406 958.101562 292.367188 958.792969 C 292.222656 960.164062 292.488281 961.449219 293.171875 962.648438 C 293.808594 963.773438 294.519531 964.847656 295.304688 965.875 C 297.375 968.40625 299.335938 970.824219 301.0625 973.300781 C 304.632812 978.082031 308.03125 982.398438 311.199219 986.488281 Z M 311.199219 986.488281 " fill-opacity="1" fill-rule="nonzero"/></g><path fill="#5da9e9" d="M 298.929688 1001.628906 L 301.695312 1005.546875 L 306.707031 1012.800781 C 311.832031 1020.171875 314.886719 1024.777344 315.636719 1025.8125 C 333.835938 1025.8125 416.085938 1027.195312 515.730469 1032.953125 L 531.335938 1033.875 C 530.75 1033.03125 530.117188 1032.226562 529.4375 1031.457031 L 528.054688 1029.902344 C 527.449219 1029.167969 526.792969 1028.476562 526.097656 1027.828125 C 525.5 1027.265625 524.996094 1026.628906 524.585938 1025.917969 C 524.175781 1025.207031 523.878906 1024.453125 523.695312 1023.652344 C 523.511719 1022.851562 523.445312 1022.042969 523.503906 1021.226562 C 523.558594 1020.40625 523.730469 1019.613281 524.023438 1018.847656 C 524.828125 1015.910156 529.089844 1013.664062 529.78125 1013.089844 L 538.191406 1007.332031 C 543.375 1003.703125 548.269531 1000.25 553.050781 996.792969 C 553.570312 996.792969 553.972656 995.871094 553.398438 995.585938 L 552.996094 995.585938 C 552.707031 995.585938 552.996094 995.585938 552.128906 995.179688 L 547.984375 993.972656 L 531.625 988.960938 C 531.359375 988.902344 531.097656 988.824219 530.839844 988.730469 C 530.582031 988.636719 530.332031 988.53125 530.089844 988.40625 C 529.84375 988.285156 529.609375 988.148438 529.382812 987.996094 C 529.15625 987.84375 528.9375 987.679688 528.730469 987.5 C 528.523438 987.324219 528.324219 987.132812 528.140625 986.933594 C 527.957031 986.730469 527.785156 986.519531 527.625 986.296875 C 527.464844 986.074219 527.320312 985.84375 527.1875 985.605469 C 527.058594 985.367188 526.941406 985.117188 526.839844 984.863281 C 526.738281 984.609375 526.652344 984.351562 526.582031 984.089844 C 526.511719 983.824219 526.457031 983.558594 526.421875 983.285156 C 526.382812 983.015625 526.359375 982.742188 526.355469 982.472656 C 526.351562 982.199219 526.363281 981.925781 526.390625 981.652344 C 526.417969 981.382812 526.460938 981.113281 526.519531 980.847656 C 526.582031 980.578125 526.65625 980.316406 526.75 980.058594 C 526.839844 979.800781 526.949219 979.550781 527.070312 979.308594 C 527.191406 979.0625 527.328125 978.828125 527.480469 978.597656 C 528.820312 977.085938 530.296875 975.722656 531.914062 974.511719 L 535.140625 971.6875 C 539.457031 968.292969 543.433594 965.007812 547.292969 961.902344 L 566.875 946.410156 C 567.269531 946.261719 567.621094 946.042969 567.933594 945.757812 C 568.246094 945.472656 568.492188 945.140625 568.671875 944.761719 C 568.855469 944.378906 568.960938 943.976562 568.988281 943.558594 C 569.015625 943.136719 568.964844 942.726562 568.832031 942.324219 C 568.429688 940.710938 566.761719 940.480469 565.492188 940.191406 L 557.71875 938.351562 C 555.011719 937.660156 551.554688 937.140625 549.136719 936.507812 L 493.554688 933.972656 C 457.324219 932.304688 406.410156 930.578125 347.832031 926.890625 L 309.300781 924.1875 L 308.953125 924.1875 C 308.953125 924.53125 308.203125 923.550781 311.199219 926.488281 C 315.578125 930.808594 319.839844 935.125 324.042969 939.214844 C 324.433594 939.589844 324.78125 940.003906 325.085938 940.453125 C 325.390625 940.902344 325.648438 941.378906 325.851562 941.878906 C 326.058594 942.382812 326.207031 942.898438 326.304688 943.433594 C 326.402344 943.96875 326.441406 944.507812 326.425781 945.046875 C 326.410156 945.589844 326.335938 946.125 326.207031 946.652344 C 326.078125 947.179688 325.898438 947.6875 325.664062 948.179688 C 325.429688 948.667969 325.144531 949.125 324.816406 949.558594 C 324.484375 949.988281 324.113281 950.378906 323.699219 950.730469 C 322.789062 951.421875 321.792969 951.941406 320.703125 952.285156 L 318.113281 953.207031 L 314.539062 954.414062 L 301.351562 959.019531 C 300.257812 959.019531 299.910156 960.289062 300.890625 961.324219 L 306.363281 969.097656 C 309.988281 974.28125 313.386719 979.230469 316.554688 983.894531 C 316.855469 984.207031 317.121094 984.546875 317.34375 984.917969 C 317.566406 985.285156 317.746094 985.675781 317.882812 986.085938 C 318.019531 986.496094 318.109375 986.917969 318.148438 987.347656 C 318.191406 987.777344 318.183594 988.207031 318.128906 988.636719 C 318.074219 989.0625 317.96875 989.480469 317.820312 989.886719 C 317.671875 990.292969 317.480469 990.675781 317.242188 991.039062 C 317.007812 991.402344 316.734375 991.730469 316.425781 992.03125 C 316.113281 992.332031 315.773438 992.597656 315.40625 992.820312 C 314.039062 993.667969 312.558594 994.203125 310.96875 994.433594 L 307.800781 995.179688 L 301.695312 996.621094 C 300.3125 996.964844 298.929688 996.910156 298.296875 998.234375 C 297.664062 999.558594 298.125 1000.480469 298.929688 1001.628906 Z M 298.929688 1001.628906 " fill-opacity="1" fill-rule="nonzero"/><path fill="#000000" d="M 311.832031 1025.757812 C 311.832031 1025.757812 408.828125 1036.925781 515.210938 1043.03125 L 525.175781 1043.605469 L 530.011719 1043.894531 L 534.101562 1043.894531 C 535.542969 1043.96875 536.90625 1043.679688 538.191406 1043.03125 C 539.40625 1042.4375 540.425781 1041.601562 541.246094 1040.527344 C 542.066406 1039.453125 542.605469 1038.253906 542.855469 1036.925781 C 543.089844 1035.566406 543.015625 1034.226562 542.632812 1032.902344 C 542.246094 1031.578125 541.59375 1030.40625 540.667969 1029.382812 L 538.480469 1026.621094 L 536.980469 1024.71875 L 535.3125 1022.933594 L 534.160156 1021.667969 C 534.160156 1021.667969 533.640625 1021.957031 535.65625 1020.457031 C 537.671875 1018.960938 541.417969 1016.3125 543.835938 1014.238281 L 560.480469 1001.628906 C 560.726562 1001.457031 560.960938 1001.269531 561.183594 1001.070312 C 561.40625 1000.867188 561.617188 1000.65625 561.816406 1000.429688 C 562.011719 1000.207031 562.199219 999.96875 562.367188 999.722656 C 562.539062 999.476562 562.695312 999.222656 562.835938 998.957031 C 562.976562 998.691406 563.101562 998.421875 563.210938 998.140625 C 563.320312 997.863281 563.410156 997.578125 563.488281 997.289062 C 563.5625 996.996094 563.621094 996.703125 563.664062 996.40625 C 563.707031 996.109375 563.730469 995.8125 563.738281 995.511719 C 563.746094 995.214844 563.734375 994.914062 563.707031 994.617188 C 563.679688 994.316406 563.632812 994.019531 563.570312 993.726562 C 563.507812 993.433594 563.429688 993.144531 563.332031 992.863281 C 563.238281 992.578125 563.125 992.300781 562.996094 992.03125 C 562.867188 991.757812 562.722656 991.496094 562.566406 991.242188 C 562.40625 990.988281 562.234375 990.742188 562.046875 990.511719 C 561.859375 990.277344 561.65625 990.054688 561.445312 989.84375 C 561.230469 989.632812 561.007812 989.433594 560.769531 989.25 C 559.746094 988.554688 558.632812 988.054688 557.429688 987.753906 L 554.203125 986.832031 L 550.113281 985.796875 L 535.542969 982.167969 C 534.503906 982.167969 533.640625 980.902344 534.503906 980.210938 C 535.371094 979.519531 537.558594 977.390625 539.34375 975.605469 L 550.863281 964.953125 L 569.410156 947.679688 C 569.910156 947.339844 570.339844 946.929688 570.695312 946.445312 C 571.054688 945.960938 571.324219 945.429688 571.503906 944.855469 C 571.679688 944.28125 571.757812 943.691406 571.734375 943.089844 C 571.710938 942.488281 571.589844 941.90625 571.367188 941.34375 C 571.09375 940.902344 570.765625 940.507812 570.382812 940.15625 C 570.003906 939.804688 569.582031 939.507812 569.121094 939.269531 C 568.660156 939.03125 568.175781 938.859375 567.667969 938.75 C 567.15625 938.644531 566.644531 938.605469 566.125 938.636719 C 562.785156 938.179688 559.964844 937.832031 557.71875 937.429688 L 551.152344 936.679688 L 547.464844 936.679688 C 547.867188 936.679688 548.328125 936.679688 548.90625 936.679688 C 551.265625 937.140625 554.664062 937.832031 557.488281 938.523438 L 565.261719 940.367188 C 566.53125 940.367188 568.199219 940.882812 568.601562 942.496094 C 568.703125 942.882812 568.730469 943.273438 568.683594 943.667969 C 568.640625 944.0625 568.53125 944.4375 568.351562 944.792969 C 568.167969 945.148438 567.933594 945.460938 567.640625 945.730469 C 567.347656 945.996094 567.015625 946.207031 566.644531 946.355469 L 547.0625 961.84375 C 543.203125 964.953125 539.226562 968.234375 534.910156 971.632812 L 531.683594 974.222656 C 530.066406 975.4375 528.589844 976.796875 527.25 978.3125 C 527.097656 978.539062 526.960938 978.773438 526.839844 979.019531 C 526.71875 979.265625 526.609375 979.515625 526.519531 979.773438 C 526.425781 980.03125 526.351562 980.292969 526.289062 980.558594 C 526.230469 980.824219 526.1875 981.09375 526.160156 981.367188 C 526.132812 981.636719 526.121094 981.910156 526.125 982.183594 C 526.128906 982.457031 526.152344 982.726562 526.191406 983 C 526.226562 983.269531 526.28125 983.535156 526.351562 983.800781 C 526.421875 984.066406 526.507812 984.324219 526.609375 984.578125 C 526.710938 984.832031 526.828125 985.078125 526.960938 985.316406 C 527.089844 985.558594 527.234375 985.789062 527.394531 986.011719 C 527.554688 986.230469 527.726562 986.445312 527.910156 986.644531 C 528.09375 986.847656 528.292969 987.035156 528.5 987.214844 C 528.707031 987.390625 528.925781 987.554688 529.152344 987.707031 C 529.378906 987.859375 529.613281 987.996094 529.859375 988.121094 C 530.101562 988.242188 530.351562 988.351562 530.609375 988.445312 C 530.867188 988.535156 531.128906 988.613281 531.394531 988.675781 L 547.753906 993.683594 L 552.128906 994.71875 C 553.050781 995.007812 552.707031 994.71875 552.996094 995.125 L 553.398438 995.125 C 553.972656 995.410156 553.398438 996.273438 553.050781 996.332031 C 548.269531 999.789062 543.375 1003.242188 538.191406 1006.871094 L 529.78125 1012.628906 C 529.148438 1013.320312 524.886719 1015.5625 524.023438 1018.386719 C 523.730469 1019.152344 523.558594 1019.945312 523.503906 1020.765625 C 523.445312 1021.582031 523.511719 1022.390625 523.695312 1023.191406 C 523.878906 1023.992188 524.175781 1024.746094 524.585938 1025.457031 C 524.996094 1026.167969 525.5 1026.804688 526.097656 1027.367188 C 526.792969 1028.015625 527.449219 1028.707031 528.054688 1029.441406 L 529.4375 1030.996094 C 530.117188 1031.765625 530.75 1032.570312 531.335938 1033.414062 L 515.730469 1032.492188 C 416.085938 1026.734375 333.835938 1025.527344 315.636719 1025.351562 Z M 311.832031 1025.757812 " fill-opacity="1" fill-rule="nonzero"/><path fill="#feefe5" d="M 594.457031 1358.917969 L 480.566406 1424.648438 L 338.878906 1363.089844 C 326.492188 1359.773438 319.144531 1347.046875 322.460938 1334.664062 C 325.78125 1322.285156 338.511719 1314.9375 350.898438 1318.253906 L 390.667969 1328.90625 L 388.804688 1325.679688 L 315.1875 1198.21875 C 308.773438 1187.121094 312.578125 1172.925781 323.683594 1166.519531 C 334.789062 1160.109375 348.988281 1163.914062 355.398438 1175.011719 L 394.234375 1242.257812 C 387.824219 1231.15625 391.628906 1216.964844 402.734375 1210.554688 C 413.839844 1204.148438 428.039062 1207.949219 434.449219 1219.050781 L 442.835938 1233.570312 C 436.421875 1222.46875 440.230469 1208.277344 451.332031 1201.867188 C 462.4375 1195.460938 476.636719 1199.261719 483.046875 1210.363281 L 491.433594 1224.882812 C 485.023438 1213.78125 488.828125 1199.589844 499.929688 1193.179688 C 511.035156 1186.769531 525.234375 1190.574219 531.644531 1201.675781 L 549.652344 1232.851562 L 560.433594 1251.515625 L 586.953125 1297.433594 Z M 594.457031 1358.917969 " fill-opacity="1" fill-rule="nonzero"/><path fill="#5da9e9" d="M 614.503906 1393.386719 L 500.507812 1459.175781 L 480.566406 1424.648438 L 594.558594 1358.859375 Z M 614.503906 1393.386719 " fill-opacity="1" fill-rule="nonzero"/><g clip-path="url(#9bd5289e46)"><path fill="#003344" d="M 309.121094 1145.902344 C 307.53125 1145.902344 305.984375 1145.074219 305.128906 1143.601562 L 275.832031 1092.867188 C 274.5625 1090.664062 275.316406 1087.851562 277.515625 1086.582031 C 279.71875 1085.304688 282.527344 1086.0625 283.800781 1088.265625 L 313.101562 1139 C 314.371094 1141.203125 313.617188 1144.011719 311.417969 1145.285156 C 310.691406 1145.703125 309.902344 1145.902344 309.121094 1145.902344 Z M 289.996094 1170.8125 C 292.027344 1170.8125 293.886719 1169.457031 294.4375 1167.402344 C 295.097656 1164.949219 293.640625 1162.425781 291.183594 1161.769531 L 234.578125 1146.609375 C 232.113281 1145.9375 229.601562 1147.40625 228.941406 1149.859375 C 228.285156 1152.3125 229.738281 1154.835938 232.195312 1155.492188 L 288.800781 1170.65625 C 289.203125 1170.761719 289.601562 1170.8125 289.996094 1170.8125 Z M 291.792969 1193.363281 L 241.042969 1222.652344 C 238.839844 1223.921875 238.085938 1226.734375 239.355469 1228.9375 C 240.210938 1230.410156 241.753906 1231.234375 243.347656 1231.234375 C 244.125 1231.234375 244.917969 1231.039062 245.644531 1230.621094 L 296.394531 1201.332031 C 298.597656 1200.0625 299.351562 1197.25 298.082031 1195.046875 C 296.804688 1192.847656 293.996094 1192.085938 291.792969 1193.363281 Z M 365.191406 1160.917969 C 365.972656 1160.917969 366.765625 1160.71875 367.488281 1160.300781 L 418.238281 1131.011719 C 420.441406 1129.738281 421.195312 1126.925781 419.925781 1124.726562 C 418.652344 1122.523438 415.832031 1121.769531 413.636719 1123.042969 L 362.886719 1152.332031 C 360.683594 1153.605469 359.929688 1156.417969 361.199219 1158.617188 C 362.054688 1160.09375 363.601562 1160.917969 365.191406 1160.917969 Z M 339.070312 1141.640625 C 339.46875 1141.75 339.871094 1141.800781 340.265625 1141.800781 C 342.296875 1141.800781 344.15625 1140.445312 344.707031 1138.390625 L 359.875 1081.808594 C 360.535156 1079.355469 359.078125 1076.832031 356.621094 1076.175781 C 354.160156 1075.5 351.644531 1076.972656 350.988281 1079.425781 L 335.820312 1136.007812 C 335.160156 1138.460938 336.617188 1140.984375 339.070312 1141.640625 Z M 616.800781 1397.375 L 502.808594 1463.160156 C 502.101562 1463.566406 501.308594 1463.773438 500.507812 1463.773438 C 500.109375 1463.773438 499.707031 1463.722656 499.316406 1463.617188 C 498.140625 1463.304688 497.132812 1462.53125 496.523438 1461.476562 L 477.335938 1428.257812 L 337.34375 1367.4375 C 330.320312 1365.464844 324.453125 1360.902344 320.796875 1354.574219 C 317.082031 1348.144531 316.09375 1340.652344 318.019531 1333.472656 C 321.984375 1318.667969 337.285156 1309.855469 352.085938 1313.8125 L 381.128906 1321.59375 L 311.199219 1200.519531 C 303.53125 1187.238281 308.101562 1170.199219 321.382812 1162.53125 C 334.660156 1154.859375 351.710938 1159.4375 359.382812 1172.714844 L 387.894531 1222.078125 C 389.941406 1215.757812 394.238281 1210.144531 400.433594 1206.570312 C 412.636719 1199.53125 428.015625 1202.8125 436.378906 1213.683594 C 438.464844 1206.992188 442.921875 1201.410156 449.027344 1197.882812 C 455.464844 1194.167969 462.953125 1193.179688 470.140625 1195.105469 C 476.121094 1196.707031 481.289062 1200.171875 484.992188 1205.007812 C 487 1198.566406 491.335938 1192.828125 497.625 1189.195312 C 497.625 1189.191406 497.625 1189.191406 497.625 1189.191406 C 510.894531 1181.535156 527.953125 1186.089844 535.628906 1199.371094 L 590.941406 1295.132812 C 591.25 1295.667969 591.449219 1296.261719 591.519531 1296.878906 L 598.867188 1357.121094 L 618.484375 1391.089844 C 619.757812 1393.289062 619.003906 1396.101562 616.800781 1397.375 Z M 340.710938 1358.871094 L 480.273438 1419.503906 L 589.519531 1356.457031 L 582.5 1298.921875 L 527.65625 1203.972656 C 522.527344 1195.089844 511.125 1192.023438 502.230469 1197.164062 C 493.339844 1202.292969 490.285156 1213.695312 495.417969 1222.585938 C 495.457031 1222.65625 495.453125 1222.734375 495.492188 1222.804688 L 508.605469 1245.515625 C 509.875 1247.714844 509.121094 1250.527344 506.917969 1251.800781 C 506.195312 1252.21875 505.40625 1252.414062 504.625 1252.414062 C 503.03125 1252.414062 501.488281 1251.589844 500.632812 1250.113281 L 480.140625 1214.632812 C 480.101562 1214.558594 480.101562 1214.476562 480.066406 1214.40625 L 479.058594 1212.660156 C 473.933594 1203.777344 462.527344 1200.71875 453.628906 1205.851562 C 449.324219 1208.335938 446.242188 1212.347656 444.957031 1217.148438 C 443.671875 1221.945312 444.328125 1226.949219 446.804688 1231.246094 L 446.816406 1231.269531 C 446.839844 1231.308594 446.835938 1231.351562 446.859375 1231.390625 L 468.414062 1268.710938 C 469.683594 1270.910156 468.929688 1273.722656 466.730469 1274.996094 C 466.003906 1275.414062 465.214844 1275.609375 464.433594 1275.609375 C 462.84375 1275.609375 461.296875 1274.789062 460.441406 1273.308594 L 435.191406 1229.59375 C 435.167969 1229.554688 435.171875 1229.511719 435.152344 1229.472656 L 430.460938 1221.347656 C 425.328125 1212.460938 413.925781 1209.402344 405.035156 1214.539062 C 396.152344 1219.667969 393.089844 1231.054688 398.207031 1239.9375 L 398.21875 1239.957031 L 428.226562 1291.90625 C 429.496094 1294.105469 428.742188 1296.917969 426.539062 1298.191406 C 425.816406 1298.609375 425.023438 1298.804688 424.246094 1298.804688 C 422.652344 1298.804688 421.109375 1297.984375 420.253906 1296.503906 L 390.246094 1244.554688 L 351.410156 1177.3125 C 346.277344 1168.425781 334.863281 1165.371094 325.980469 1170.5 C 317.09375 1175.628906 314.039062 1187.035156 319.167969 1195.917969 L 394.652344 1326.609375 C 395.582031 1328.222656 395.449219 1330.234375 394.316406 1331.707031 C 393.183594 1333.183594 391.273438 1333.839844 389.476562 1333.351562 L 349.703125 1322.695312 C 348.097656 1322.265625 346.480469 1322.0625 344.890625 1322.0625 C 336.671875 1322.0625 329.128906 1327.550781 326.90625 1335.851562 C 325.617188 1340.652344 326.277344 1345.671875 328.765625 1349.972656 C 331.25 1354.277344 335.265625 1357.359375 340.066406 1358.644531 C 340.289062 1358.703125 340.503906 1358.78125 340.710938 1358.871094 Z M 608.214844 1391.703125 L 592.871094 1365.144531 L 486.851562 1426.332031 L 502.195312 1452.890625 Z M 608.214844 1391.703125 " fill-opacity="1" fill-rule="nonzero"/></g></svg>