<svg xmlns="http://www.w3.org/2000/svg" xmlns:xlink="http://www.w3.org/1999/xlink" width="500" zoomAndPan="magnify" viewBox="0 0 375 374.999991" height="500" preserveAspectRatio="xMidYMid meet" version="1.0"><defs><clipPath id="d70f675aac"><path d="M 0 23.4375 L 375 23.4375 L 375 351.9375 L 0 351.9375 Z M 0 23.4375 " clip-rule="nonzero"/></clipPath></defs><g clip-path="url(#d70f675aac)"><path fill="#14418c" d="M 0.421875 132.941406 C 0.421875 133.507812 0.496094 134.074219 0.636719 134.625 C 4.847656 150.96875 18.640625 154.3125 28.714844 156.757812 L 45.085938 160.726562 L 45.085938 250.398438 C 45.085938 254.1875 48.152344 257.257812 51.9375 257.257812 L 84.828125 257.257812 C 88.238281 269.230469 97.933594 285.121094 118.195312 285.121094 C 139.796875 285.121094 149.039062 269.347656 151.890625 257.257812 L 186.109375 257.257812 C 186.644531 257.394531 187.199219 257.472656 187.773438 257.472656 L 274.707031 257.472656 L 291.566406 295.984375 C 291.820312 296.5625 292.152344 297.105469 292.550781 297.59375 L 309.097656 317.699219 C 305.375 317.773438 302.378906 320.8125 302.378906 324.554688 L 302.378906 344.9375 C 302.378906 348.726562 305.445312 351.796875 309.230469 351.796875 L 368.007812 351.796875 C 371.792969 351.796875 374.863281 348.726562 374.863281 344.9375 L 374.863281 335.769531 C 374.960938 335.304688 375.011719 334.824219 375.007812 334.328125 L 374.609375 242.707031 C 374.609375 242.136719 374.535156 241.574219 374.394531 241.023438 C 370.191406 224.714844 356.429688 221.378906 346.382812 218.941406 L 330.074219 214.988281 L 330.074219 125.585938 C 330.074219 121.796875 327.007812 118.726562 323.222656 118.726562 L 290.441406 118.726562 C 287.03125 106.785156 277.363281 90.945312 257.152344 90.945312 C 235.609375 90.945312 226.386719 106.667969 223.539062 118.726562 L 190.507812 118.726562 C 189.671875 118.359375 188.746094 118.15625 187.773438 118.15625 L 100.578125 118.15625 L 83.664062 79.519531 C 83.414062 78.941406 83.082031 78.398438 82.679688 77.910156 L 66.0625 57.714844 C 69.804688 57.664062 72.820312 54.617188 72.820312 50.859375 L 72.820312 30.417969 C 72.820312 26.628906 69.753906 23.558594 65.96875 23.558594 L 7.019531 23.558594 C 3.234375 23.558594 0.167969 26.628906 0.167969 30.417969 L 0.167969 39.613281 C 0.0703125 40.078125 0.015625 40.5625 0.0195312 41.054688 Z M 361.15625 338.074219 L 316.082031 338.074219 L 316.082031 331.414062 L 361.15625 331.414062 Z M 343.15625 232.277344 C 354.398438 235.003906 358.957031 237.203125 360.90625 243.683594 L 361.230469 317.695312 L 326.847656 317.695312 L 303.738281 289.605469 L 285.507812 247.957031 C 285.5 247.941406 285.496094 247.925781 285.488281 247.914062 L 278.117188 231.070312 C 277.601562 229.0625 277.191406 224.867188 281.792969 222.617188 C 283.308594 222.121094 284.820312 222.214844 286.289062 222.902344 C 287.855469 223.632812 289.1875 224.992188 289.679688 226.367188 C 289.730469 226.503906 289.785156 226.640625 289.84375 226.773438 L 301.6875 254.082031 C 302.542969 256.054688 304.273438 257.511719 306.359375 258.015625 L 316.742188 260.535156 C 319.734375 261.261719 322.742188 259.898438 324.242188 257.386719 C 327.539062 256.894531 330.074219 254.050781 330.074219 250.609375 L 330.074219 229.105469 Z M 229.402344 132.449219 C 233.023438 132.449219 236.019531 129.625 236.242188 126.007812 C 236.292969 125.136719 237.769531 104.664062 257.152344 104.664062 C 274.898438 104.664062 277.988281 125.605469 278.105469 126.472656 C 278.550781 129.890625 281.460938 132.449219 284.902344 132.449219 L 316.367188 132.449219 L 316.367188 246.324219 L 312.902344 245.484375 L 302.492188 221.484375 C 300.730469 216.800781 296.855469 212.695312 292.082031 210.464844 C 287.25 208.210938 281.835938 207.980469 276.832031 209.820312 C 276.671875 209.878906 276.511719 209.945312 276.355469 210.015625 C 262.960938 216.125 263.152344 229.351562 265.125 235.488281 C 265.195312 235.710938 265.277344 235.929688 265.371094 236.144531 L 268.703125 243.75 L 194.628906 243.75 L 194.628906 222.066406 C 206.703125 219.359375 224.902344 209.796875 224.902344 188.097656 C 224.902344 164.984375 206.867188 156.042969 194.628906 153.9375 L 194.628906 132.449219 Z M 180.921875 131.875 L 180.921875 160.316406 C 180.921875 164.105469 183.988281 167.175781 187.773438 167.175781 C 188.210938 167.175781 188.632812 167.132812 189.046875 167.054688 C 189.308594 167.105469 189.574219 167.144531 189.847656 167.164062 C 192.03125 167.316406 211.195312 169.222656 211.195312 188.097656 C 211.195312 205.859375 190.289062 208.957031 189.386719 209.082031 C 189.273438 209.097656 189.164062 209.125 189.050781 209.144531 C 188.636719 209.066406 188.210938 209.019531 187.773438 209.019531 C 183.988281 209.019531 180.921875 212.09375 180.921875 215.882812 L 180.921875 243.539062 L 146.027344 243.539062 C 142.429688 243.539062 139.445312 246.355469 139.1875 249.945312 C 139.035156 252.144531 137.121094 271.398438 118.195312 271.398438 C 100.382812 271.398438 97.28125 250.382812 97.160156 249.515625 C 96.71875 246.097656 93.808594 243.539062 90.367188 243.539062 L 58.789062 243.539062 L 58.789062 129.289062 L 62.300781 130.140625 L 72.746094 154.21875 C 74.511719 158.910156 78.390625 163.023438 83.175781 165.257812 C 85.855469 166.507812 88.710938 167.136719 91.578125 167.136719 C 93.894531 167.136719 96.214844 166.726562 98.453125 165.90625 C 98.613281 165.84375 98.773438 165.78125 98.929688 165.707031 C 112.347656 159.585938 112.15625 146.335938 110.183594 140.1875 C 110.109375 139.964844 110.027344 139.746094 109.933594 139.53125 L 106.582031 131.875 Z M 89.777344 127.671875 C 89.785156 127.683594 89.789062 127.699219 89.796875 127.714844 L 97.191406 144.605469 C 97.710938 146.625 98.125 150.84375 93.492188 153.105469 C 91.964844 153.605469 90.445312 153.511719 88.96875 152.820312 C 87.390625 152.085938 86.050781 150.71875 85.554688 149.335938 C 85.507812 149.199219 85.453125 149.0625 85.394531 148.929688 L 73.515625 121.542969 C 72.660156 119.570312 70.929688 118.113281 68.84375 117.605469 L 58.429688 115.082031 C 55.433594 114.355469 52.425781 115.71875 50.925781 118.238281 C 47.621094 118.726562 45.085938 121.570312 45.085938 125.015625 L 45.085938 146.605469 L 31.941406 143.421875 C 20.65625 140.683594 16.078125 138.472656 14.121094 131.964844 L 13.796875 57.71875 L 48.3125 57.71875 L 71.492188 85.898438 Z M 13.871094 37.277344 L 59.113281 37.277344 L 59.113281 43.996094 L 13.871094 43.996094 Z M 13.871094 37.277344 " fill-opacity="1" fill-rule="nonzero"/></g></svg>