<svg xmlns="http://www.w3.org/2000/svg" xmlns:xlink="http://www.w3.org/1999/xlink" width="500" zoomAndPan="magnify" viewBox="0 0 375 374.999991" height="500" preserveAspectRatio="xMidYMid meet" version="1.0"><defs><g/><clipPath id="a795581505"><path d="M 19 148 L 358 148 L 358 355.761719 L 19 355.761719 Z M 19 148 " clip-rule="nonzero"/></clipPath><clipPath id="a1ae46bf11"><path d="M 118 19.011719 L 260 19.011719 L 260 80 L 118 80 Z M 118 19.011719 " clip-rule="nonzero"/></clipPath></defs><path fill="#000000" d="M 357.675781 140.359375 C 357.675781 145.605469 357.519531 148.339844 357.519531 148.339844 C 357.519531 148.339844 357.519531 145.667969 357.175781 140.675781 C 356.953125 136.9375 356.671875 131.847656 356.230469 125.566406 C 355.695312 118.277344 354.941406 109.355469 353.808594 99.082031 C 353.210938 93.933594 352.550781 88.433594 351.828125 82.625 C 351.253906 76.589844 350.152344 70.652344 348.527344 64.8125 C 347.632812 61.839844 346.21875 59.136719 344.28125 56.707031 L 343.589844 55.859375 C 343.351562 55.707031 343.132812 55.527344 342.929688 55.324219 C 342.378906 54.957031 341.789062 54.652344 341.171875 54.414062 C 339.71875 53.84375 338.21875 53.457031 336.675781 53.25 C 329.566406 52.476562 322.460938 52.476562 315.355469 53.25 C 311.613281 53.535156 307.808594 53.941406 303.910156 54.351562 L 297.8125 54.351562 C 295.863281 54.351562 293.878906 54.539062 291.898438 54.695312 C 283.945312 55.261719 275.738281 56.203125 267.28125 57.085938 C 263.035156 57.523438 258.726562 57.933594 254.324219 58.246094 C 249.925781 58.5625 245.554688 58.625 241.121094 58.84375 L 213.984375 59.847656 C 195.589844 60.726562 176.570312 60.507812 157.230469 60.195312 C 116.59375 59.398438 76.109375 56.519531 35.769531 51.554688 C 33.808594 51.238281 31.839844 51.039062 29.855469 50.957031 C 28.347656 50.957031 28.160156 51.210938 27.59375 52.089844 C 26.609375 55.65625 26.097656 59.289062 26.050781 62.988281 C 25.390625 71.09375 24.796875 78.855469 24.199219 86.265625 C 23.066406 101.09375 22.175781 114.550781 21.523438 126.632812 C 20.234375 150.664062 19.734375 169.136719 19.605469 181.542969 C 19.480469 193.953125 19.230469 200.390625 19.230469 200.390625 C 19.230469 200.390625 18.851562 192.789062 18.191406 178.808594 C 17.53125 164.832031 17.027344 144.664062 17.28125 119.0625 C 17.46875 106.339844 17.910156 92.359375 18.601562 77.25 C 18.789062 73.480469 18.976562 69.648438 19.167969 65.722656 C 19.167969 63.773438 19.355469 61.796875 19.480469 59.816406 C 19.605469 57.839844 19.636719 55.953125 19.890625 53.535156 C 20.003906 52.085938 20.378906 50.710938 21.015625 49.402344 C 21.648438 48.097656 22.5 46.949219 23.570312 45.964844 C 24.917969 44.933594 26.4375 44.328125 28.128906 44.140625 C 29.449219 43.988281 30.769531 43.988281 32.089844 44.140625 L 44.667969 45.398438 C 78.78125 48.539062 116.796875 51.117188 157.417969 51.996094 C 177.859375 52.402344 197.667969 52.59375 216.59375 51.996094 L 244.390625 51.398438 C 253.507812 51.398438 262.09375 50.644531 270.707031 49.984375 C 279.324219 49.324219 287.6875 48.570312 295.863281 48.382812 C 297.90625 48.382812 299.949219 48.382812 302.148438 48.382812 C 302.546875 48.414062 302.945312 48.414062 303.34375 48.382812 L 304.824219 48.382812 L 307.777344 48.195312 C 311.738281 47.285156 315.640625 47.285156 319.476562 47.0625 C 323.3125 46.84375 327.117188 47.0625 330.855469 47.25 C 334.691406 47.441406 338.433594 48.128906 342.082031 49.324219 C 344.152344 50.042969 345.945312 51.195312 347.457031 52.78125 C 348.6875 54.230469 349.734375 55.800781 350.601562 57.492188 C 352.101562 60.625 353.148438 63.902344 353.746094 67.324219 C 354.789062 73.335938 355.46875 79.390625 355.792969 85.480469 C 356.230469 91.136719 356.609375 96.507812 356.890625 101.472656 C 357.457031 111.460938 357.675781 120.003906 357.742188 126.949219 C 357.710938 132.445312 357.710938 136.9375 357.675781 140.359375 Z M 357.675781 140.359375 " fill-opacity="1" fill-rule="nonzero"/><g clip-path="url(#a795581505)"><path fill="#000000" d="M 357.992188 172.277344 C 357.992188 187.730469 357.488281 210.253906 354.847656 238.246094 C 353.660156 253.730469 351.566406 269.089844 348.558594 284.328125 C 346.691406 293.039062 343.839844 301.414062 340.007812 309.457031 C 337.886719 313.734375 335.40625 317.785156 332.554688 321.613281 C 329.503906 325.5625 326.046875 329.113281 322.179688 332.265625 C 318.082031 335.414062 313.695312 338.089844 309.019531 340.292969 C 304.34375 342.496094 299.484375 344.175781 294.445312 345.332031 C 284.226562 347.691406 273.882812 349.1875 263.414062 349.824219 C 242.503906 351.488281 220.683594 352.964844 198.105469 353.78125 C 152.671875 355.730469 110.066406 355.761719 72.054688 354.726562 C 62.621094 354.441406 53.1875 354.128906 44.320312 353.75 C 41.949219 353.695312 39.59375 353.496094 37.246094 353.152344 C 34.460938 352.773438 31.996094 351.675781 29.855469 349.855469 C 28.898438 348.851562 28.117188 347.730469 27.503906 346.488281 C 26.890625 345.242188 26.480469 343.9375 26.273438 342.566406 C 25.800781 340.148438 25.707031 338.074219 25.488281 336.003906 C 23.882812 319.351562 22.71875 303.960938 21.839844 289.949219 C 20.078125 261.929688 19.542969 239.6875 19.324219 224.171875 C 19.105469 208.652344 19.324219 200.453125 19.324219 200.453125 C 19.324219 200.453125 19.859375 209.46875 20.832031 225.585938 C 21.808594 241.699219 23.570312 265.039062 26.523438 293.5625 C 28.035156 307.761719 29.667969 323.46875 31.996094 339.898438 C 32.15625 341.566406 32.691406 343.105469 33.597656 344.515625 C 34.523438 345.679688 35.71875 346.390625 37.183594 346.652344 C 41.292969 347.214844 45.425781 347.4375 49.570312 347.3125 L 77.019531 347.5625 C 114.5 347.5625 155.628906 347.027344 198.011719 345.207031 C 223.167969 344.105469 247 342.757812 269.230469 341.121094 C 272.71875 340.839844 276.148438 340.496094 279.480469 340.054688 L 280.894531 339.867188 C 287.484375 339.054688 293.9375 337.640625 300.261719 335.625 C 304.890625 334.113281 309.28125 332.09375 313.4375 329.5625 C 317.394531 327.105469 320.976562 324.195312 324.191406 320.828125 C 327.242188 317.484375 329.9375 313.871094 332.273438 309.992188 C 334.476562 306.175781 336.386719 302.21875 337.996094 298.117188 C 341.023438 290.230469 343.328125 282.136719 344.910156 273.835938 C 346.515625 265.886719 347.617188 258.128906 348.652344 250.746094 C 349.691406 243.363281 350.601562 236.390625 351.421875 229.761719 C 354.3125 205.953125 355.664062 187.070312 356.453125 173.53125 C 356.453125 172.023438 356.609375 170.582031 356.671875 169.199219 C 357.332031 155.46875 357.488281 148.402344 357.488281 148.402344 C 357.488281 148.402344 357.488281 150.507812 357.675781 154.683594 C 357.675781 156.128906 357.675781 157.828125 357.675781 159.710938 C 357.929688 163.042969 357.992188 167.28125 357.992188 172.277344 Z M 357.992188 172.277344 " fill-opacity="1" fill-rule="nonzero"/></g><path fill="#ffcf00" d="M 357.175781 140.738281 C 357.175781 141.996094 356.890625 143.628906 356.703125 145.605469 C 356.703125 148.308594 356.011719 151.636719 355.382812 155.597656 C 355.066406 157.574219 354.847656 159.710938 354.34375 161.878906 C 353.839844 164.046875 353.339844 166.558594 352.773438 169.105469 C 349.890625 181.609375 345.695312 193.664062 340.195312 205.261719 C 332.515625 220.964844 322.832031 235.324219 311.144531 248.328125 C 304.429688 255.789062 297.21875 262.730469 289.511719 269.15625 C 285.894531 272.296875 282.027344 275.0625 278.378906 277.886719 C 276.617188 279.332031 274.667969 280.464844 272.84375 281.75 L 268.316406 284.894531 C 266.714844 285.992188 265.171875 287.027344 263.570312 288.035156 L 268.820312 292.117188 C 269.667969 292.808594 270.425781 293.5 271.148438 294.191406 L 272.34375 295.355469 C 273.902344 296.902344 275.382812 298.523438 276.777344 300.222656 C 279.375 303.363281 281.605469 306.746094 283.472656 310.371094 C 285.171875 313.460938 286.050781 316.769531 286.113281 320.296875 C 286.117188 323.867188 285.546875 327.34375 284.398438 330.726562 C 283.253906 334.109375 281.59375 337.21875 279.417969 340.054688 C 276.085938 340.496094 272.65625 340.839844 269.167969 341.121094 C 246.9375 342.757812 223.101562 344.105469 197.949219 345.207031 C 155.40625 347.027344 114.4375 347.6875 76.957031 347.5625 L 49.507812 347.3125 C 45.359375 347.4375 41.230469 347.214844 37.121094 346.652344 C 35.65625 346.390625 34.460938 345.679688 33.535156 344.515625 C 32.628906 343.105469 32.09375 341.566406 31.933594 339.898438 C 29.855469 323.46875 28.035156 307.761719 26.523438 293.5625 C 23.570312 265.039062 21.839844 241.730469 20.738281 225.554688 C 19.636719 209.375 19.230469 200.421875 19.230469 200.421875 C 19.230469 200.421875 19.230469 194.140625 19.605469 181.574219 C 19.984375 169.007812 20.234375 150.695312 21.523438 126.601562 C 22.175781 114.539062 23.066406 101.082031 24.199219 86.234375 C 24.796875 78.820312 25.390625 71.0625 26.050781 62.957031 C 26.09375 59.28125 26.59375 55.667969 27.5625 52.121094 C 28.128906 51.242188 28.316406 51.117188 29.824219 50.988281 C 31.820312 51.070312 33.800781 51.269531 35.769531 51.585938 C 76.144531 56.636719 116.675781 59.601562 157.355469 60.476562 C 176.695312 60.789062 195.71875 61.011719 214.109375 60.132812 L 241.246094 59.125 C 245.679688 58.90625 250.050781 58.84375 254.453125 58.527344 C 258.855469 58.214844 263.160156 57.808594 267.40625 57.367188 C 275.863281 56.488281 284.070312 55.546875 292.027344 54.980469 C 294.007812 54.980469 295.988281 54.726562 297.9375 54.632812 L 304.195312 54.632812 C 308.09375 54.226562 311.898438 53.816406 315.640625 53.535156 C 322.746094 52.761719 329.851562 52.761719 336.957031 53.535156 C 338.503906 53.738281 340 54.128906 341.453125 54.695312 C 342.074219 54.9375 342.660156 55.242188 343.214844 55.609375 C 343.414062 55.8125 343.632812 55.988281 343.875 56.140625 L 344.28125 56.707031 C 346.167969 59.136719 347.542969 61.828125 348.402344 64.78125 C 350.027344 70.621094 351.128906 76.558594 351.703125 82.589844 C 352.425781 88.402344 353.085938 93.902344 353.683594 99.050781 C 354.816406 109.324219 355.570312 118.246094 356.105469 125.535156 C 356.671875 131.910156 356.859375 137 357.175781 140.738281 Z M 357.175781 140.738281 " fill-opacity="1" fill-rule="nonzero"/><path fill="#feefe5" d="M 356.484375 173.53125 C 355.695312 187.070312 354.34375 205.953125 351.453125 229.761719 C 350.632812 236.390625 349.753906 243.394531 348.683594 250.746094 C 347.617188 258.097656 346.546875 265.886719 344.945312 273.835938 C 343.359375 282.136719 341.054688 290.230469 338.027344 298.117188 C 336.394531 302.222656 334.46875 306.179688 332.242188 309.992188 C 329.90625 313.871094 327.210938 317.484375 324.160156 320.828125 C 320.945312 324.195312 317.363281 327.105469 313.40625 329.5625 C 309.261719 332.089844 304.878906 334.113281 300.261719 335.625 C 293.949219 337.636719 287.503906 339.050781 280.925781 339.867188 C 283.347656 337.265625 285.304688 334.355469 286.796875 331.136719 C 288.289062 327.914062 289.246094 324.542969 289.667969 321.019531 C 289.953125 319.050781 289.953125 317.082031 289.667969 315.113281 C 289.359375 313.023438 288.824219 310.992188 288.0625 309.019531 C 286.453125 304.773438 284.359375 300.785156 281.773438 297.050781 C 280.382812 295.03125 278.882812 293.09375 277.277344 291.238281 C 276.875 290.734375 276.445312 290.253906 275.988281 289.792969 C 275.855469 289.644531 275.726562 289.488281 275.613281 289.324219 L 275.109375 288.726562 C 275.320312 288.601562 275.539062 288.496094 275.769531 288.410156 L 276.050781 288.410156 L 276.746094 288.035156 C 278.664062 286.839844 280.707031 285.773438 282.625 284.390625 C 286.460938 281.6875 290.609375 279.113281 294.476562 275.910156 C 302.921875 269.421875 310.699219 262.21875 317.808594 254.296875 C 329.203125 241.589844 338.371094 227.441406 345.320312 211.855469 C 350.707031 199.566406 354.425781 186.792969 356.484375 173.53125 Z M 356.484375 173.53125 " fill-opacity="1" fill-rule="nonzero"/><path fill="#000000" d="M 357.867188 159.554688 C 357.644531 163.636719 357.207031 168.191406 356.546875 173.1875 C 356.546875 173.1875 356.546875 173.40625 356.546875 173.53125 C 354.441406 186.753906 350.675781 199.488281 345.257812 211.730469 C 338.308594 227.316406 329.136719 241.460938 317.746094 254.171875 C 310.636719 262.09375 302.859375 269.296875 294.414062 275.78125 C 290.546875 278.925781 286.398438 281.5625 282.5625 284.265625 C 280.644531 285.648438 278.597656 286.714844 276.679688 287.910156 L 275.988281 288.285156 L 275.707031 288.285156 C 275.476562 288.371094 275.257812 288.476562 275.046875 288.601562 L 275.550781 289.195312 C 275.664062 289.363281 275.789062 289.519531 275.925781 289.667969 C 276.382812 290.128906 276.8125 290.609375 277.214844 291.113281 C 278.820312 292.96875 280.320312 294.90625 281.710938 296.925781 C 284.296875 300.660156 286.390625 304.648438 288 308.894531 C 288.761719 310.863281 289.296875 312.894531 289.605469 314.988281 C 289.886719 316.957031 289.886719 318.925781 289.605469 320.894531 C 289.183594 324.417969 288.226562 327.789062 286.734375 331.011719 C 285.238281 334.230469 283.285156 337.140625 280.863281 339.742188 C 280.234375 340.398438 279.636719 340.996094 279.101562 341.5 C 278.238281 342.292969 277.328125 343.027344 276.367188 343.699219 L 275.582031 344.265625 L 276.273438 343.542969 C 277.144531 342.71875 277.949219 341.839844 278.695312 340.902344 L 279.449219 339.929688 C 281.625 337.09375 283.285156 333.984375 284.429688 330.601562 C 285.578125 327.21875 286.148438 323.742188 286.144531 320.171875 C 286.082031 316.644531 285.203125 313.335938 283.503906 310.242188 C 281.636719 306.621094 279.40625 303.238281 276.808594 300.097656 C 275.417969 298.472656 273.949219 296.925781 272.40625 295.449219 L 271.210938 294.285156 C 270.488281 293.59375 269.734375 292.902344 268.882812 292.210938 L 263.570312 288.035156 C 265.015625 286.996094 266.714844 285.960938 268.316406 284.894531 L 272.84375 281.75 C 274.667969 280.464844 276.617188 279.332031 278.378906 277.886719 C 282.027344 275.0625 285.894531 272.390625 289.511719 269.15625 C 297.21875 262.730469 304.429688 255.789062 311.144531 248.328125 C 322.769531 235.34375 332.402344 221.019531 340.039062 205.355469 C 345.539062 193.757812 349.730469 181.703125 352.617188 169.199219 C 353.179688 166.652344 353.714844 164.234375 354.1875 161.972656 C 354.660156 159.710938 354.910156 157.574219 355.226562 155.691406 C 355.855469 151.730469 356.386719 148.402344 356.546875 145.699219 C 356.734375 143.722656 356.890625 142.089844 357.015625 140.832031 C 357.207031 138.601562 357.332031 137.46875 357.332031 137.46875 C 357.332031 137.46875 357.332031 138.507812 357.519531 140.613281 C 357.519531 142.183594 357.644531 144.277344 357.898438 146.894531 C 358.179688 150.222656 358.148438 154.527344 357.867188 159.554688 Z M 357.867188 159.554688 " fill-opacity="1" fill-rule="nonzero"/><g clip-path="url(#a1ae46bf11)"><path fill="#000000" d="M 249.105469 58.496094 C 248.976562 58.585938 248.871094 58.699219 248.796875 58.835938 C 248.722656 58.976562 248.683594 59.125 248.683594 59.28125 C 248.683594 59.441406 248.722656 59.589844 248.796875 59.730469 C 248.871094 59.867188 248.976562 59.980469 249.105469 60.070312 C 249.4375 60.226562 249.785156 60.34375 250.144531 60.414062 C 250.742188 60.632812 251.277344 60.824219 251.875 60.980469 C 253.035156 61.386719 254.167969 61.734375 255.238281 62.046875 C 255.601562 62.070312 255.953125 62.148438 256.292969 62.285156 C 256.632812 62.417969 256.941406 62.601562 257.222656 62.832031 C 257.507812 63.0625 257.746094 63.332031 257.945312 63.636719 C 258.140625 63.941406 258.289062 64.273438 258.382812 64.625 C 258.695312 66.003906 257.691406 67.105469 256.9375 68.015625 L 255.175781 70.121094 L 252.03125 73.703125 L 246.8125 79.953125 C 247.21875 79.386719 248.886719 76.8125 251.683594 72.855469 L 254.421875 68.894531 L 255.929688 66.757812 C 256.308594 66.226562 256.714844 65.566406 256.308594 64.90625 C 255.898438 64.246094 255.207031 64.214844 254.453125 64.027344 L 251.117188 63.242188 L 249.261719 62.988281 C 248.394531 62.867188 247.589844 62.570312 246.84375 62.109375 C 246.660156 61.980469 246.496094 61.835938 246.34375 61.671875 C 246.195312 61.507812 246.0625 61.328125 245.949219 61.136719 C 245.835938 60.945312 245.746094 60.742188 245.675781 60.53125 C 245.605469 60.320312 245.558594 60.105469 245.535156 59.882812 C 245.511719 59.660156 245.511719 59.441406 245.535156 59.21875 C 245.558594 59 245.605469 58.78125 245.671875 58.570312 C 245.742188 58.359375 245.832031 58.15625 245.945312 57.964844 C 246.058594 57.773438 246.1875 57.59375 246.339844 57.429688 C 248.070312 54.886719 249.925781 52.183594 251.90625 49.355469 L 254.890625 45.117188 C 255.425781 44.550781 255.238281 43.921875 254.640625 43.859375 L 247.441406 41.347656 L 245.492188 40.6875 L 244.074219 40.183594 C 243.480469 39.996094 242.9375 39.714844 242.441406 39.335938 C 242.214844 39.144531 242.011719 38.929688 241.832031 38.695312 C 241.652344 38.460938 241.496094 38.210938 241.367188 37.945312 C 241.238281 37.675781 241.140625 37.398438 241.070312 37.113281 C 241 36.824219 240.960938 36.53125 240.953125 36.234375 C 240.941406 35.941406 240.964844 35.648438 241.019531 35.355469 C 241.070312 35.0625 241.152344 34.78125 241.265625 34.507812 C 241.375 34.234375 241.515625 33.972656 241.683594 33.726562 C 241.847656 33.484375 242.039062 33.257812 242.25 33.054688 C 244.546875 30.824219 246.875 28.464844 249.261719 26.109375 C 250.898438 24.507812 250.332031 25.042969 250.488281 24.855469 L 250.300781 24.855469 L 229.265625 26.332031 C 197.289062 28.339844 169.523438 29.285156 149.714844 30.195312 L 119.375 31.578125 L 118.714844 31.578125 C 121.417969 31.136719 133.304688 29.316406 150.941406 27.335938 C 171.097656 25.042969 198.859375 22.71875 228.921875 20.832031 L 252.28125 19.011719 C 252.949219 18.96875 253.59375 19.070312 254.21875 19.320312 C 254.839844 19.566406 255.378906 19.933594 255.835938 20.425781 C 256.285156 20.917969 256.613281 21.484375 256.824219 22.117188 C 257.03125 22.753906 257.101562 23.402344 257.03125 24.070312 C 256.929688 24.742188 256.707031 25.375 256.355469 25.960938 C 256.007812 26.550781 255.5625 27.050781 255.019531 27.460938 L 252.753906 29.566406 C 250.585938 31.640625 248.476562 33.554688 246.464844 35.472656 C 246.378906 35.527344 246.339844 35.605469 246.339844 35.707031 C 246.339844 35.808594 246.378906 35.886719 246.464844 35.941406 L 246.96875 36.132812 L 248.917969 36.886719 L 256.746094 40.027344 C 257.472656 40.289062 258.070312 40.726562 258.546875 41.332031 C 259.023438 41.9375 259.304688 42.621094 259.386719 43.386719 C 259.464844 44.136719 259.320312 44.839844 258.949219 45.492188 C 258.601562 46.105469 258.210938 46.691406 257.785156 47.25 C 256.652344 48.632812 255.582031 49.953125 254.640625 51.304688 C 252.691406 53.910156 250.835938 56.265625 249.105469 58.496094 Z M 249.105469 58.496094 " fill-opacity="1" fill-rule="nonzero"/></g><path fill="#5da9e9" d="M 255.804688 66.757812 L 254.292969 68.894531 L 251.558594 72.855469 C 248.761719 76.875 247.09375 79.386719 246.683594 79.953125 C 236.75 79.953125 191.847656 80.707031 137.453125 83.847656 L 128.933594 84.351562 C 129.253906 83.890625 129.601562 83.453125 129.96875 83.03125 L 130.726562 82.183594 C 131.054688 81.78125 131.414062 81.40625 131.792969 81.050781 C 132.121094 80.746094 132.394531 80.398438 132.617188 80.011719 C 132.84375 79.621094 133.003906 79.210938 133.105469 78.773438 C 133.207031 78.335938 133.242188 77.894531 133.210938 77.449219 C 133.179688 77.003906 133.085938 76.570312 132.925781 76.152344 C 132.484375 74.550781 130.160156 73.324219 129.78125 73.011719 L 125.191406 69.871094 C 122.359375 67.890625 119.6875 66.003906 117.078125 64.121094 C 116.796875 64.121094 116.574219 63.617188 116.890625 63.460938 L 117.109375 63.460938 C 117.269531 63.460938 117.109375 63.460938 117.582031 63.242188 L 119.847656 62.582031 L 128.777344 59.847656 C 129.066406 59.78125 129.347656 59.679688 129.613281 59.546875 C 129.882812 59.410156 130.128906 59.246094 130.355469 59.050781 C 130.585938 58.855469 130.785156 58.636719 130.960938 58.394531 C 131.132812 58.152344 131.277344 57.890625 131.386719 57.613281 C 131.5 57.335938 131.574219 57.046875 131.617188 56.75 C 131.660156 56.457031 131.664062 56.160156 131.632812 55.859375 C 131.605469 55.5625 131.539062 55.273438 131.4375 54.992188 C 131.335938 54.710938 131.203125 54.445312 131.039062 54.195312 C 130.308594 53.371094 129.5 52.625 128.617188 51.964844 L 126.859375 50.425781 C 124.5 48.570312 122.328125 46.78125 120.222656 45.085938 L 109.53125 36.632812 C 109.316406 36.550781 109.125 36.433594 108.953125 36.277344 C 108.785156 36.121094 108.652344 35.941406 108.550781 35.734375 C 108.453125 35.523438 108.394531 35.304688 108.378906 35.078125 C 108.363281 34.847656 108.390625 34.621094 108.464844 34.402344 C 108.683594 33.523438 109.59375 33.398438 110.289062 33.242188 L 114.53125 32.238281 C 116.011719 31.859375 117.894531 31.578125 119.21875 31.230469 L 149.558594 29.847656 C 169.335938 28.9375 197.132812 27.996094 229.109375 25.984375 L 250.144531 24.507812 L 250.332031 24.507812 C 250.332031 24.695312 250.742188 24.164062 249.105469 25.765625 C 246.714844 28.121094 244.390625 30.476562 242.09375 32.707031 C 241.882812 32.914062 241.691406 33.136719 241.523438 33.382812 C 241.359375 33.628906 241.21875 33.886719 241.109375 34.160156 C 240.996094 34.4375 240.914062 34.71875 240.859375 35.011719 C 240.808594 35.300781 240.785156 35.59375 240.796875 35.890625 C 240.804688 36.1875 240.84375 36.476562 240.914062 36.765625 C 240.984375 37.054688 241.082031 37.332031 241.210938 37.597656 C 241.339844 37.863281 241.492188 38.117188 241.675781 38.351562 C 241.855469 38.585938 242.058594 38.796875 242.285156 38.988281 C 242.777344 39.367188 243.324219 39.648438 243.917969 39.839844 L 245.332031 40.339844 L 247.28125 41 L 254.484375 43.515625 C 255.082031 43.515625 255.269531 44.203125 254.734375 44.769531 L 251.746094 49.011719 C 249.765625 51.839844 247.910156 54.539062 246.183594 57.085938 C 246.019531 57.253906 245.875 57.4375 245.753906 57.640625 C 245.628906 57.84375 245.53125 58.054688 245.457031 58.277344 C 245.382812 58.503906 245.335938 58.730469 245.3125 58.96875 C 245.289062 59.203125 245.292969 59.4375 245.324219 59.667969 C 245.355469 59.902344 245.410156 60.132812 245.492188 60.351562 C 245.574219 60.574219 245.679688 60.785156 245.808594 60.980469 C 245.9375 61.179688 246.085938 61.359375 246.253906 61.523438 C 246.421875 61.6875 246.609375 61.832031 246.8125 61.953125 C 247.558594 62.414062 248.363281 62.707031 249.230469 62.832031 L 250.960938 63.242188 L 254.292969 64.027344 C 255.050781 64.214844 255.804688 64.183594 256.148438 64.90625 C 256.496094 65.628906 256.242188 66.132812 255.804688 66.757812 Z M 255.804688 66.757812 " fill-opacity="1" fill-rule="nonzero"/><path fill="#000000" d="M 248.761719 79.921875 C 248.761719 79.921875 195.8125 86.015625 137.738281 89.34375 L 132.296875 89.660156 L 129.65625 89.816406 L 127.421875 89.816406 C 126.636719 89.859375 125.894531 89.699219 125.191406 89.34375 C 124.527344 89.023438 123.972656 88.566406 123.523438 87.980469 C 123.074219 87.394531 122.78125 86.738281 122.644531 86.015625 C 122.515625 85.273438 122.558594 84.542969 122.769531 83.820312 C 122.976562 83.097656 123.335938 82.457031 123.839844 81.902344 L 125.035156 80.394531 L 125.851562 79.355469 L 126.761719 78.382812 L 127.390625 77.691406 C 127.390625 77.691406 127.675781 77.847656 126.574219 77.03125 C 125.472656 76.214844 123.429688 74.769531 122.109375 73.640625 L 113.023438 66.757812 C 112.753906 66.570312 112.511719 66.351562 112.296875 66.105469 C 112.078125 65.859375 111.890625 65.589844 111.738281 65.300781 C 111.582031 65.011719 111.464844 64.707031 111.382812 64.390625 C 111.296875 64.074219 111.253906 63.75 111.246094 63.421875 C 111.238281 63.09375 111.269531 62.769531 111.335938 62.449219 C 111.40625 62.128906 111.507812 61.820312 111.648438 61.523438 C 111.789062 61.226562 111.964844 60.949219 112.167969 60.691406 C 112.375 60.4375 112.605469 60.207031 112.867188 60.003906 C 113.425781 59.625 114.03125 59.351562 114.6875 59.1875 L 116.449219 58.6875 L 118.683594 58.121094 L 126.636719 56.140625 C 127.203125 56.140625 127.675781 55.449219 127.203125 55.074219 C 126.730469 54.695312 125.535156 53.535156 124.5625 52.5625 L 118.273438 46.75 L 108.148438 37.324219 C 107.875 37.140625 107.640625 36.917969 107.445312 36.652344 C 107.25 36.386719 107.105469 36.097656 107.007812 35.785156 C 106.910156 35.472656 106.867188 35.148438 106.878906 34.820312 C 106.890625 34.492188 106.960938 34.175781 107.082031 33.871094 C 107.386719 33.378906 107.792969 33.003906 108.308594 32.738281 C 108.820312 32.472656 109.363281 32.359375 109.941406 32.394531 C 111.765625 32.140625 113.304688 31.953125 114.53125 31.734375 L 118.117188 31.324219 L 120.128906 31.324219 C 119.910156 31.324219 119.65625 31.324219 119.34375 31.324219 C 118.054688 31.578125 116.199219 31.953125 114.65625 32.332031 L 110.414062 33.335938 C 109.722656 33.335938 108.808594 33.617188 108.589844 34.5 C 108.535156 34.707031 108.519531 34.921875 108.542969 35.136719 C 108.570312 35.351562 108.628906 35.558594 108.726562 35.75 C 108.824219 35.945312 108.957031 36.113281 109.117188 36.261719 C 109.277344 36.410156 109.457031 36.523438 109.660156 36.601562 L 120.347656 45.054688 C 122.457031 46.75 124.625 48.539062 126.984375 50.394531 L 128.746094 51.808594 C 129.625 52.46875 130.433594 53.210938 131.164062 54.039062 C 131.332031 54.285156 131.464844 54.550781 131.5625 54.835938 C 131.664062 55.117188 131.730469 55.40625 131.761719 55.703125 C 131.789062 56 131.785156 56.296875 131.742188 56.59375 C 131.703125 56.890625 131.625 57.179688 131.515625 57.457031 C 131.402344 57.734375 131.257812 57.996094 131.085938 58.238281 C 130.910156 58.480469 130.710938 58.699219 130.484375 58.894531 C 130.253906 59.089844 130.007812 59.253906 129.742188 59.386719 C 129.472656 59.523438 129.191406 59.625 128.902344 59.691406 L 119.972656 62.425781 L 117.582031 62.988281 C 117.078125 63.148438 117.269531 62.988281 117.109375 63.210938 L 116.890625 63.210938 C 116.574219 63.367188 116.890625 63.839844 117.078125 63.871094 C 119.6875 65.753906 122.359375 67.640625 125.191406 69.617188 L 129.78125 72.757812 C 130.128906 73.136719 132.453125 74.363281 132.925781 75.902344 C 133.085938 76.320312 133.179688 76.75 133.210938 77.199219 C 133.242188 77.644531 133.207031 78.085938 133.105469 78.523438 C 133.003906 78.957031 132.84375 79.371094 132.617188 79.757812 C 132.394531 80.148438 132.121094 80.496094 131.792969 80.800781 C 131.414062 81.15625 131.054688 81.53125 130.726562 81.933594 L 129.96875 82.78125 C 129.601562 83.199219 129.253906 83.640625 128.933594 84.097656 L 137.453125 83.597656 C 191.847656 80.457031 236.75 79.796875 246.683594 79.703125 Z M 248.761719 79.921875 " fill-opacity="1" fill-rule="nonzero"/><path stroke-linecap="butt" transform="matrix(0.739135, -0.0775243, 0.0775243, 0.739135, 33.851285, 157.213862)" fill="none" stroke-linejoin="miter" d="M 5.343922 2.564801 L 32.143683 2.564134 C 39.622128 2.561063 45.666572 4.489834 50.293793 8.341637 C 54.925693 12.199216 57.244257 17.806565 57.244257 25.163135 C 57.243708 32.524933 54.899412 38.298545 50.205594 42.488648 C 45.522779 46.67462 39.505426 48.770494 32.143628 48.769945 L 22.081576 48.76628 L 22.079104 75.999073 L 5.34717 75.998726 Z M 22.082907 35.400925 L 26.796725 35.40384 C 30.533608 35.399416 33.608836 34.649129 36.013052 33.141426 C 38.418911 31.618041 39.619138 29.143759 39.620054 25.708675 C 39.617643 22.204539 38.416929 19.695115 36.011588 18.190311 C 33.607891 16.669825 30.532648 15.908631 26.796313 15.907827 L 22.082495 15.904913 Z M 22.082907 35.400925 " stroke="#5da9e9" stroke-width="6.677227" stroke-opacity="1" stroke-miterlimit="4"/><path stroke-linecap="butt" transform="matrix(0.741175, -0.0546808, 0.0546808, 0.741175, 72.699485, 153.064048)" fill="none" stroke-linejoin="miter" d="M 9.650512 70.568317 C 4.580839 66.062347 2.045635 60.278203 2.044512 53.221127 C 2.044162 46.153568 4.680569 40.350418 9.953346 35.816918 C 15.243395 31.263611 21.777761 28.989299 29.556833 28.988738 C 37.209327 28.98938 43.654774 31.277897 48.898028 35.859917 C 54.158554 40.422131 56.788111 46.213236 56.787473 53.222748 C 56.787608 60.221777 54.222438 65.98802 49.097206 70.521864 C 43.966345 75.060563 37.453719 77.325939 29.558941 77.323234 C 21.368687 77.325081 14.736297 75.070205 9.650512 70.568317 Z M 21.843025 45.463944 C 19.79703 47.479111 18.778772 50.065513 18.777767 53.222376 C 18.777536 56.368755 19.753059 58.933598 21.709578 60.917293 C 23.681823 62.902147 26.270158 63.894196 29.469342 63.893053 C 32.557675 63.894273 35.093388 62.884978 37.075708 60.875654 C 39.059574 58.845363 40.054545 56.288865 40.055764 53.200532 C 40.055609 50.059395 39.033683 47.480587 36.989986 45.46411 C 34.945903 43.452874 32.442984 42.446045 29.470744 42.44285 C 26.440072 42.445884 23.899504 43.44955 21.843025 45.463944 Z M 21.843025 45.463944 " stroke="#5da9e9" stroke-width="6.677227" stroke-opacity="1" stroke-miterlimit="4"/><path stroke-linecap="butt" transform="matrix(0.742352, -0.0352855, 0.0352855, 0.742352, 111.144196, 150.233033)" fill="none" stroke-linejoin="miter" d="M 25.190167 28.993007 C 27.794972 28.990531 30.375053 29.286813 32.925159 29.881604 C 35.491015 30.477144 37.394107 31.067492 38.644435 31.663646 L 40.512053 32.557503 L 35.338338 42.877672 C 31.776598 40.98244 28.390943 40.032214 25.186375 40.032492 C 23.407837 40.032147 22.146327 40.22476 21.406845 40.615833 C 20.667863 40.996405 20.296668 41.720703 20.29851 42.788975 C 20.297282 43.036231 20.328053 43.274483 20.385325 43.508733 C 20.442846 43.737733 20.558368 43.964228 20.732141 44.182967 C 20.922412 44.386705 21.087931 44.557694 21.233696 44.701435 C 21.379212 44.850425 21.623982 45.014658 21.972756 45.204881 C 22.332779 45.379854 22.616046 45.509082 22.822557 45.592566 C 23.03932 45.681799 23.380089 45.819022 23.839365 46.009236 C 24.32064 46.179448 24.672159 46.311921 24.904922 46.396652 C 25.153185 46.487383 25.557205 46.62235 26.121734 46.812305 C 26.687011 46.98651 27.12353 47.101975 27.426041 47.15845 C 29.268627 47.693301 30.866213 48.290175 32.229549 48.944321 C 33.593134 49.593216 35.029242 50.487611 36.533122 51.616754 C 38.052753 52.746646 39.226901 54.170575 40.055069 55.89904 C 40.894735 57.607003 41.317414 59.563508 41.312855 61.762805 C 41.314256 72.139526 34.100802 77.327013 19.667245 77.325015 C 16.409925 77.328048 13.308066 76.828057 10.366916 75.825291 C 7.426266 74.812024 5.300883 73.805937 4.001269 72.807529 L 2.041337 71.198915 L 8.452538 60.416629 C 8.932335 60.839346 9.556141 61.332052 10.323956 61.894748 C 11.091522 62.462693 12.480868 63.233839 14.496747 64.218935 C 16.523874 65.18878 18.279204 65.677388 19.757736 65.67926 C 23.030805 65.676975 24.666994 64.57606 24.666553 62.371263 C 24.666716 61.371492 24.246139 60.588512 23.404573 60.027573 C 22.579006 59.462132 21.16767 58.821491 19.170316 58.110899 C 17.183462 57.400807 15.635623 56.753677 14.516798 56.158512 C 11.662107 54.665228 9.405663 52.984638 7.736966 51.116243 C 6.084018 49.248596 5.260035 46.767865 5.259268 43.6843 C 5.258116 39.058951 7.049842 35.460719 10.629694 32.878853 C 14.220546 30.286986 19.075787 28.991787 25.190167 28.993007 Z M 25.190167 28.993007 " stroke="#5da9e9" stroke-width="6.677227" stroke-opacity="1" stroke-miterlimit="4"/><path stroke-linecap="butt" transform="matrix(0.742887, -0.0212208, 0.0212208, 0.742887, 138.194175, 148.925966)" fill="none" stroke-linejoin="miter" d="M 8.021302 30.337364 L 8.018346 13.321728 L 23.777245 13.31968 L 23.774797 30.34042 L 33.381659 30.336158 L 33.380081 42.35637 L 23.778623 42.355528 L 23.774658 56.852286 C 23.775134 61.06938 24.955927 63.174842 27.316737 63.179181 C 27.911031 63.175125 28.534745 63.061486 29.188181 62.827758 C 29.852424 62.583822 30.364004 62.346042 30.707159 62.113966 L 31.253414 61.766754 L 35.165258 74.477157 C 31.77199 76.378345 27.911717 77.324974 23.578887 77.327402 C 20.623784 77.32712 18.072479 76.812552 15.930225 75.783848 C 13.79893 74.739683 12.18777 73.342301 11.086388 71.586148 C 9.984856 69.835249 9.190903 67.993231 8.714887 66.065647 C 8.249378 64.138363 8.018943 62.08108 8.01833 59.893649 L 8.019724 42.357576 L 1.436416 42.358817 L 1.43274 30.338455 Z M 8.021302 30.337364 " stroke="#5da9e9" stroke-width="6.677227" stroke-opacity="1" stroke-miterlimit="4"/><path stroke-linecap="butt" transform="matrix(0.743173, -0.00491337, 0.00491337, 0.743173, 158.967371, 148.198262)" fill="none" stroke-linejoin="miter" d="M 51.551142 55.353241 L 18.431969 55.355039 C 18.431831 58.556049 19.467348 60.93343 21.538556 62.481927 C 23.625601 64.020016 25.885945 64.786593 28.319552 64.786913 C 30.86879 64.787999 32.88418 64.443903 34.360397 63.765104 C 35.836648 63.081049 37.532807 61.730913 39.44372 59.698895 L 50.832861 65.414068 C 46.081332 73.356273 38.186598 77.325052 27.14337 77.325628 C 20.263024 77.327446 14.360153 74.970446 9.434723 70.259886 C 4.504106 65.53878 2.044956 59.861621 2.04154 53.223049 C 2.04345 46.573999 4.504248 40.871549 9.434411 36.121025 C 14.359352 31.365209 20.261961 28.991649 27.147563 28.989866 C 34.390569 28.990447 40.279409 31.084544 44.814084 35.272159 C 49.364526 39.459879 51.637737 45.435411 51.638938 53.204046 C 51.637105 54.276293 51.611355 54.990963 51.551142 55.353241 Z M 18.862928 46.616868 L 36.229337 46.616047 C 35.866616 44.237858 34.932569 42.413046 33.427196 41.141611 C 31.916602 39.864886 29.976037 39.226571 27.600245 39.226633 C 24.993192 39.225165 22.912437 39.915736 21.363271 41.293124 C 19.829978 42.654849 18.993014 44.431159 18.862928 46.616868 Z M 18.862928 46.616868 " stroke="#5da9e9" stroke-width="6.677227" stroke-opacity="1" stroke-miterlimit="4"/><path stroke-linecap="butt" transform="matrix(0.743068, 0.0134702, -0.0134702, 0.743068, 193.62238, 147.947232)" fill="none" stroke-linejoin="miter" d="M 5.344962 75.99976 L 5.347806 30.338064 L 21.102777 30.336334 L 21.101275 36.923287 L 21.274792 36.925399 C 21.391184 36.676213 21.580291 36.378398 21.842114 36.031951 C 22.119417 35.669453 22.696948 35.049181 23.579868 34.165783 C 24.478268 33.266333 25.425679 32.46062 26.427357 31.748548 C 27.439641 31.04154 28.747549 30.402771 30.340667 29.837684 C 31.949551 29.272313 33.5846 28.99034 35.251069 28.991672 C 36.975345 28.991956 38.661867 29.229486 40.315984 29.709422 C 41.980517 30.183913 43.198358 30.666501 43.969221 31.14142 L 45.227754 31.838804 L 38.641322 45.205652 C 36.671288 43.538121 33.938347 42.7045 30.447753 42.704694 C 28.549959 42.702298 26.912228 43.126256 25.534366 43.966057 C 24.17724 44.789712 23.212428 45.795503 22.645186 46.983337 C 22.093804 48.176141 21.696744 49.182154 21.448845 50.006728 C 21.216713 50.831017 21.102401 51.484947 21.10056 51.963361 L 21.105188 75.997935 Z M 5.344962 75.99976 " stroke="#5da9e9" stroke-width="6.677227" stroke-opacity="1" stroke-miterlimit="4"/><path stroke-linecap="butt" transform="matrix(0.742452, 0.033113, -0.033113, 0.742452, 221.399683, 148.308842)" fill="none" stroke-linejoin="miter" d="M 5.347485 2.560174 L 28.123808 2.565049 C 35.005491 2.563284 40.495453 4.033613 44.598944 6.975803 C 48.696482 9.902475 50.744944 14.66202 50.749582 21.254204 C 50.746404 28.614884 47.692256 33.865068 41.576871 37.010473 C 52.023602 38.848997 57.24463 45.024387 57.244739 55.525909 C 57.246394 61.697323 55.110404 66.654016 50.836535 70.390735 C 46.557649 74.132939 40.685124 75.999543 33.208925 76.001518 L 5.345202 76.002564 Z M 22.082282 31.313839 L 23.408304 31.317834 C 27.143661 31.314339 29.934693 30.663731 31.775916 29.360995 C 33.611888 28.058493 34.53186 25.91821 34.536302 22.950647 C 34.53483 17.963014 30.824991 15.471521 23.406551 15.47092 L 22.080763 15.472175 Z M 22.079033 63.09215 L 27.319175 63.089938 C 35.52163 63.092402 39.619225 60.357928 39.617679 54.896782 C 39.619508 51.634703 38.589274 49.297289 36.531994 47.879054 C 34.489764 46.444363 31.416605 45.723835 27.318238 45.727737 L 22.083112 45.724463 Z M 22.079033 63.09215 " stroke="#5da9e9" stroke-width="6.677227" stroke-opacity="1" stroke-miterlimit="4"/><path stroke-linecap="butt" transform="matrix(0.741076, 0.0560061, -0.0560061, 0.741076, 260.433328, 149.975277)" fill="none" stroke-linejoin="miter" d="M 9.650505 70.568625 C 4.57641 66.060561 2.041673 60.280022 2.040658 53.222163 C 2.044092 46.153426 4.678616 40.351198 9.954713 35.814688 C 15.240499 31.266904 21.77856 28.991181 29.558413 28.988313 C 37.206841 28.990105 43.657751 31.280427 48.900658 35.86007 C 54.1581 40.422802 56.788365 46.211935 56.791057 53.222227 C 56.787715 60.222434 54.224189 65.987669 49.095636 70.523571 C 43.967083 75.059473 37.454832 77.327974 29.558487 77.323833 C 21.372691 77.325754 14.734687 75.070656 9.650505 70.568625 Z M 21.842735 45.463633 C 19.79701 47.478917 18.780094 50.064789 18.776262 53.222437 C 18.776879 56.369207 19.755851 58.930747 21.713971 60.917539 C 23.682573 62.903539 26.266465 63.89425 29.471283 63.894518 C 32.554764 63.893413 35.093359 62.889819 37.075794 60.874047 C 39.062678 58.847396 40.05537 56.28971 40.053869 53.200988 C 40.053648 50.059459 39.031162 47.480124 36.991653 45.462585 C 34.947298 43.450684 32.441231 42.443549 29.46821 42.441577 C 26.442778 42.443566 23.899338 43.452797 21.842735 45.463633 Z M 21.842735 45.463633 " stroke="#5da9e9" stroke-width="6.677227" stroke-opacity="1" stroke-miterlimit="4"/><path stroke-linecap="butt" transform="matrix(0.739066, 0.0781851, -0.0781851, 0.739066, 299.030286, 152.830228)" fill="none" stroke-linejoin="miter" d="M 39.965653 30.340958 L 58.136435 30.337283 L 22.254887 99.143463 L 4.084104 99.147138 L 19.839862 68.870532 L -1.783851 30.339018 L 16.387485 30.340569 L 29.101439 53.747053 Z M 39.965653 30.340958 " stroke="#5da9e9" stroke-width="6.677227" stroke-opacity="1" stroke-miterlimit="4"/><g fill="#003344" fill-opacity="1"><g transform="translate(39.74313, 213.388133)"><g><path d="M -1.734375 -54.6875 L 18.0625 -56.765625 C 23.59375 -57.347656 28.210938 -56.394531 31.921875 -53.90625 C 35.640625 -51.414062 37.785156 -47.453125 38.359375 -42.015625 C 38.929688 -36.578125 37.644531 -32.128906 34.5 -28.671875 C 31.363281 -25.210938 27.078125 -23.195312 21.640625 -22.625 L 14.203125 -21.859375 L 16.3125 -1.71875 L 3.953125 -0.40625 Z M 13.171875 -31.71875 L 16.65625 -32.078125 C 19.425781 -32.367188 21.640625 -33.164062 23.296875 -34.46875 C 24.953125 -35.78125 25.644531 -37.707031 25.375 -40.25 C 25.101562 -42.84375 24.019531 -44.601562 22.125 -45.53125 C 20.238281 -46.457031 17.910156 -46.773438 15.140625 -46.484375 L 11.65625 -46.125 Z M 13.171875 -31.71875 "/></g></g></g><g fill="#003344" fill-opacity="1"><g transform="translate(76.855225, 209.393371)"><g><path d="M 6.859375 -4.53125 C 2.847656 -7.601562 0.648438 -11.757812 0.265625 -17 C -0.117188 -22.238281 1.519531 -26.6875 5.1875 -30.34375 C 8.863281 -34 13.582031 -36.035156 19.34375 -36.453125 C 25.019531 -36.878906 29.925781 -35.539062 34.0625 -32.4375 C 38.195312 -29.34375 40.457031 -25.195312 40.84375 -20 C 41.226562 -14.800781 39.644531 -10.378906 36.09375 -6.734375 C 32.539062 -3.085938 27.835938 -1.046875 21.984375 -0.609375 C 15.910156 -0.160156 10.867188 -1.46875 6.859375 -4.53125 Z M 14.53125 -23.8125 C 13.125 -22.207031 12.503906 -20.242188 12.671875 -17.921875 C 12.847656 -15.597656 13.71875 -13.75 15.28125 -12.375 C 16.84375 -11 18.804688 -10.398438 21.171875 -10.578125 C 23.472656 -10.742188 25.300781 -11.628906 26.65625 -13.234375 C 28.007812 -14.847656 28.601562 -16.796875 28.4375 -19.078125 C 28.269531 -21.398438 27.375 -23.253906 25.75 -24.640625 C 24.125 -26.035156 22.207031 -26.648438 20 -26.484375 C 17.769531 -26.316406 15.945312 -25.425781 14.53125 -23.8125 Z M 14.53125 -23.8125 "/></g></g></g><g fill="#003344" fill-opacity="1"><g transform="translate(113.825894, 206.651747)"><g><path d="M 17.046875 -35.78125 C 18.984375 -35.875 20.910156 -35.742188 22.828125 -35.390625 C 24.742188 -35.046875 26.175781 -34.675781 27.125 -34.28125 L 28.53125 -33.671875 L 25.0625 -25.828125 C 22.351562 -27.117188 19.8125 -27.707031 17.4375 -27.59375 C 16.113281 -27.53125 15.179688 -27.335938 14.640625 -27.015625 C 14.097656 -26.703125 13.847656 -26.148438 13.890625 -25.359375 C 13.898438 -25.179688 13.929688 -25.003906 13.984375 -24.828125 C 14.035156 -24.648438 14.128906 -24.488281 14.265625 -24.34375 C 14.410156 -24.195312 14.539062 -24.070312 14.65625 -23.96875 C 14.769531 -23.863281 14.960938 -23.75 15.234375 -23.625 C 15.503906 -23.507812 15.71875 -23.421875 15.875 -23.359375 C 16.039062 -23.304688 16.300781 -23.21875 16.65625 -23.09375 C 17.019531 -22.976562 17.285156 -22.890625 17.453125 -22.828125 C 17.628906 -22.773438 17.929688 -22.691406 18.359375 -22.578125 C 18.796875 -22.472656 19.125 -22.40625 19.34375 -22.375 C 20.71875 -22.039062 21.921875 -21.65625 22.953125 -21.21875 C 23.992188 -20.789062 25.097656 -20.1875 26.265625 -19.40625 C 27.429688 -18.625 28.351562 -17.601562 29.03125 -16.34375 C 29.707031 -15.09375 30.085938 -13.648438 30.171875 -12.015625 C 30.535156 -4.304688 25.363281 -0.195312 14.65625 0.3125 C 12.226562 0.425781 9.90625 0.160156 7.6875 -0.484375 C 5.476562 -1.128906 3.875 -1.804688 2.875 -2.515625 L 1.34375 -3.65625 L 5.734375 -11.859375 C 6.097656 -11.566406 6.570312 -11.222656 7.15625 -10.828125 C 7.75 -10.441406 8.8125 -9.921875 10.34375 -9.265625 C 11.882812 -8.609375 13.207031 -8.304688 14.3125 -8.359375 C 16.738281 -8.472656 17.910156 -9.347656 17.828125 -10.984375 C 17.796875 -11.734375 17.457031 -12.300781 16.8125 -12.6875 C 16.175781 -13.070312 15.109375 -13.492188 13.609375 -13.953125 C 12.109375 -14.421875 10.925781 -14.851562 10.0625 -15.25 C 7.894531 -16.25 6.160156 -17.414062 4.859375 -18.75 C 3.566406 -20.082031 2.867188 -21.890625 2.765625 -24.171875 C 2.597656 -27.609375 3.800781 -30.347656 6.375 -32.390625 C 8.945312 -34.429688 12.503906 -35.5625 17.046875 -35.78125 Z M 17.046875 -35.78125 "/></g></g></g><g fill="#003344" fill-opacity="1"><g transform="translate(139.806955, 205.385347)"><g><path d="M 4.984375 -34.09375 L 4.625 -46.734375 L 16.328125 -47.0625 L 16.6875 -34.421875 L 23.828125 -34.625 L 24.078125 -25.6875 L 16.9375 -25.484375 L 17.25 -14.71875 C 17.34375 -11.59375 18.269531 -10.054688 20.03125 -10.109375 C 20.46875 -10.117188 20.925781 -10.21875 21.40625 -10.40625 C 21.882812 -10.601562 22.253906 -10.796875 22.515625 -10.984375 L 22.90625 -11.234375 L 26.078125 -1.875 C 23.609375 -0.382812 20.769531 0.40625 17.5625 0.5 C 15.351562 0.5625 13.441406 0.226562 11.828125 -0.5 C 10.222656 -1.226562 8.992188 -2.226562 8.140625 -3.5 C 7.285156 -4.78125 6.660156 -6.132812 6.265625 -7.5625 C 5.878906 -8.988281 5.660156 -10.515625 5.609375 -12.140625 L 5.234375 -25.15625 L 0.34375 -25.015625 L 0.09375 -33.953125 Z M 4.984375 -34.09375 "/></g></g></g><g fill="#003344" fill-opacity="1"><g transform="translate(159.340787, 204.679444)"><g><path d="M 38.203125 -15.59375 L 13.59375 -15.4375 C 13.601562 -13.0625 14.382812 -11.300781 15.9375 -10.15625 C 17.488281 -9.019531 19.164062 -8.457031 20.96875 -8.46875 C 22.863281 -8.476562 24.363281 -8.738281 25.46875 -9.25 C 26.570312 -9.769531 27.828125 -10.785156 29.234375 -12.296875 L 37.734375 -8.125 C 34.234375 -2.1875 28.378906 0.804688 20.171875 0.859375 C 15.054688 0.898438 10.65625 -0.820312 6.96875 -4.3125 C 3.289062 -7.800781 1.4375 -12.015625 1.40625 -16.953125 C 1.375 -21.890625 3.175781 -26.132812 6.8125 -29.6875 C 10.445312 -33.238281 14.820312 -35.035156 19.9375 -35.078125 C 25.320312 -35.109375 29.710938 -33.578125 33.109375 -30.484375 C 36.503906 -27.398438 38.222656 -22.96875 38.265625 -17.1875 C 38.265625 -16.394531 38.242188 -15.863281 38.203125 -15.59375 Z M 13.890625 -21.921875 L 26.78125 -22 C 26.507812 -23.769531 25.804688 -25.125 24.671875 -26.0625 C 23.535156 -27.007812 22.085938 -27.476562 20.328125 -27.46875 C 18.378906 -27.445312 16.835938 -26.925781 15.703125 -25.90625 C 14.566406 -24.882812 13.960938 -23.554688 13.890625 -21.921875 Z M 13.890625 -21.921875 "/></g></g></g><g fill="#003344" fill-opacity="1"><g transform="translate(192.598642, 204.420368)"><g><path d="M 3.96875 0.078125 L 4.578125 -33.859375 L 16.28125 -33.65625 L 16.203125 -28.765625 L 16.34375 -28.765625 C 16.425781 -28.941406 16.566406 -29.15625 16.765625 -29.40625 C 16.972656 -29.664062 17.414062 -30.117188 18.09375 -30.765625 C 18.769531 -31.421875 19.484375 -32.003906 20.234375 -32.515625 C 20.992188 -33.035156 21.972656 -33.492188 23.171875 -33.890625 C 24.367188 -34.296875 25.585938 -34.488281 26.828125 -34.46875 C 28.097656 -34.4375 29.347656 -34.234375 30.578125 -33.859375 C 31.816406 -33.484375 32.722656 -33.113281 33.296875 -32.75 L 34.203125 -32.203125 L 29.140625 -22.375 C 27.703125 -23.632812 25.679688 -24.289062 23.078125 -24.34375 C 21.671875 -24.363281 20.453125 -24.070312 19.421875 -23.46875 C 18.398438 -22.875 17.664062 -22.140625 17.21875 -21.265625 C 16.78125 -20.390625 16.46875 -19.644531 16.28125 -19.03125 C 16.09375 -18.414062 16 -17.929688 16 -17.578125 L 15.671875 0.28125 Z M 3.96875 0.078125 "/></g></g></g><g fill="#003344" fill-opacity="1"><g transform="translate(218.883094, 204.735163)"><g><path d="M 6.40625 -54.34375 L 23.328125 -53.578125 C 28.429688 -53.359375 32.453125 -52.09375 35.390625 -49.78125 C 38.335938 -47.46875 39.703125 -43.863281 39.484375 -38.96875 C 39.242188 -33.507812 36.800781 -29.707031 32.15625 -27.5625 C 39.84375 -25.851562 43.507812 -21.101562 43.15625 -13.3125 C 42.957031 -8.71875 41.210938 -5.101562 37.921875 -2.46875 C 34.628906 0.15625 30.203125 1.34375 24.640625 1.09375 L 3.96875 0.171875 Z M 17.875 -32.4375 L 18.875 -32.390625 C 21.644531 -32.273438 23.734375 -32.671875 25.140625 -33.578125 C 26.546875 -34.492188 27.296875 -36.046875 27.390625 -38.234375 C 27.554688 -41.941406 24.890625 -43.914062 19.390625 -44.15625 L 18.390625 -44.203125 Z M 16.8125 -8.84375 L 20.71875 -8.671875 C 26.789062 -8.398438 29.921875 -10.289062 30.109375 -14.34375 C 30.210938 -16.769531 29.523438 -18.546875 28.046875 -19.671875 C 26.578125 -20.804688 24.328125 -21.441406 21.296875 -21.578125 L 17.390625 -21.75 Z M 16.8125 -8.84375 "/></g></g></g><g fill="#003344" fill-opacity="1"><g transform="translate(256.176862, 206.297076)"><g><path d="M 7.453125 -3.46875 C 3.953125 -7.101562 2.398438 -11.535156 2.796875 -16.765625 C 3.191406 -22.003906 5.472656 -26.160156 9.640625 -29.234375 C 13.804688 -32.304688 18.769531 -33.625 24.53125 -33.1875 C 30.195312 -32.757812 34.847656 -30.703125 38.484375 -27.015625 C 42.117188 -23.328125 43.738281 -18.882812 43.34375 -13.6875 C 42.957031 -8.5 40.734375 -4.367188 36.671875 -1.296875 C 32.617188 1.773438 27.671875 3.09375 21.828125 2.65625 C 15.753906 2.195312 10.960938 0.15625 7.453125 -3.46875 Z M 17.90625 -21.390625 C 16.269531 -20.015625 15.363281 -18.164062 15.1875 -15.84375 C 15.007812 -13.519531 15.59375 -11.5625 16.9375 -9.96875 C 18.28125 -8.382812 20.132812 -7.5 22.5 -7.3125 C 24.789062 -7.144531 26.726562 -7.753906 28.3125 -9.140625 C 29.90625 -10.523438 30.789062 -12.359375 30.96875 -14.640625 C 31.144531 -16.960938 30.523438 -18.925781 29.109375 -20.53125 C 27.703125 -22.144531 25.898438 -23.035156 23.703125 -23.203125 C 21.472656 -23.378906 19.539062 -22.773438 17.90625 -21.390625 Z M 17.90625 -21.390625 "/></g></g></g><g fill="#003344" fill-opacity="1"><g transform="translate(293.088216, 208.999212)"><g><path d="M 33.09375 -30.625 L 46.53125 -29.203125 L 14.625 18.84375 L 1.21875 17.4375 L 15.234375 -3.71875 L 2.234375 -33.890625 L 15.671875 -32.46875 L 23.25 -14.15625 Z M 33.09375 -30.625 "/></g></g></g></svg>