<?xml version="1.0" standalone="no"?>
<!DOCTYPE svg PUBLIC "-//W3C//DTD SVG 20010904//EN"
 "http://www.w3.org/TR/2001/REC-SVG-20010904/DTD/svg10.dtd">
<svg version="1.0" xmlns="http://www.w3.org/2000/svg"
 width="1814.000000pt" height="1814.000000pt" viewBox="0 0 1814.000000 1814.000000"
 preserveAspectRatio="xMidYMid meet">

<g transform="translate(0.000000,1814.000000) scale(0.100000,-0.100000)"
fill="#FFCF00" stroke="none">
<path d="M2750 18129 c-1278 -112 -2350 -1029 -2659 -2274 -33 -131 -44 -191
-69 -358 -15 -103 -16 -613 -20 -6312 -2 -4492 0 -6245 8 -6365 98 -1449 1202
-2612 2650 -2792 85 -11 1284 -13 6425 -13 l6320 0 135 22 c681 109 1242 388
1702 847 509 506 817 1162 878 1866 8 88 10 1960 8 6405 -3 5891 -5 6287 -21
6385 -61 374 -138 622 -288 926 -136 277 -312 525 -534 753 -483 497 -1036
780 -1745 894 l-135 22 -6280 1 c-3454 1 -6323 -2 -6375 -7z m7165 -4007 c203
-26 317 -44 440 -72 929 -207 1734 -753 2265 -1536 551 -813 743 -1812 534
-2784 -197 -918 -762 -1745 -1541 -2252 -78 -51 -142 -96 -142 -100 -1 -3 367
-500 816 -1105 450 -604 834 -1130 855 -1168 57 -109 81 -209 81 -340 0 -134
-19 -221 -74 -331 -201 -407 -711 -540 -1089 -284 -36 24 -88 67 -115 94 -28
28 -552 726 -1165 1550 -1180 1587 -1183 1591 -1215 1742 -19 89 -19 240 0
329 31 146 133 311 252 410 91 75 180 117 348 166 402 115 715 302 991 591
511 537 708 1323 508 2028 -141 493 -457 921 -899 1215 -247 165 -519 274
-840 337 -109 22 -123 22 -1509 25 -1559 4 -1458 8 -1528 -65 -20 -20 -44 -53
-54 -72 -18 -34 -19 -158 -24 -3960 l-5 -3925 -24 -70 c-52 -156 -133 -275
-248 -366 -212 -168 -488 -213 -731 -119 -223 86 -406 297 -462 531 -20 83
-20 115 -20 4487 0 4932 -8 4466 75 4637 24 50 64 115 89 145 120 144 302 246
486 270 94 13 3842 5 3945 -8z"/>
</g>
</svg>
